<svg xmlns="http://www.w3.org/2000/svg" viewBox="0 0 512 512" width="512" height="512"><g transform="translate(0 0)"><path d="M 62 57 h 4 a 5 5 0 0 1 5 5 v 4 a 5 5 0 0 1 -5 5 h -4 a 5 5 0 0 1 -5 -5 v -4 a 5 5 0 0 1 5 -5 Z" fill="#3A342E" stroke="#3A342E" stroke-width="5" stroke-linejoin="round" stroke-linecap="round"/><path d="M 59 55 h 10 a 4 4 0 0 1 4 4 v 10 a 4 4 0 0 1 -4 4 h -10 a 4 4 0 0 1 -4 -4 v -10 a 4 4 0 0 1 4 -4 Z" fill="#3A342E" stroke="#3A342E" stroke-width="5" stroke-linejoin="round" stroke-linecap="round"/><path d="M 62 57 h 4 a 5 5 0 0 1 5 5 v 4 a 5 5 0 0 1 -5 5 h -4 a 5 5 0 0 1 -5 -5 v -4 a 5 5 0 0 1 5 -5 Z" fill="#8A9199"/><path d="M 59 55 h 10 a 4 4 0 0 1 4 4 v 10 a 4 4 0 0 1 -4 4 h -10 a 4 4 0 0 1 -4 -4 v -10 a 4 4 0 0 1 4 -4 Z" fill="#5F5E5A"/></g><g transform="translate(128 0)"><path d="M 57 57 h 14 a 0 0 0 0 1 0 0 v 14 a 0 0 0 0 1 0 0 h -14 a 0 0 0 0 1 0 0 v -14 a 0 0 0 0 1 0 0 Z" fill="#3A342E" stroke="#3A342E" stroke-width="5" stroke-linejoin="round" stroke-linecap="round"/><path d="M 57 -16 h 14 a 0 0 0 0 1 0 0 v 80 a 0 0 0 0 1 0 0 h -14 a 0 0 0 0 1 0 0 v -80 a 0 0 0 0 1 0 0 Z" fill="#3A342E" stroke="#3A342E" stroke-width="5" stroke-linejoin="round" stroke-linecap="round"/><path d="M 58 69 h 12 a 3 3 0 0 1 3 3 v 0 a 3 3 0 0 1 -3 3 h -12 a 3 3 0 0 1 -3 -3 v 0 a 3 3 0 0 1 3 -3 Z" fill="#3A342E" stroke="#3A342E" stroke-width="5" stroke-linejoin="round" stroke-linecap="round"/><path d="M 57 57 h 14 a 0 0 0 0 1 0 0 v 14 a 0 0 0 0 1 0 0 h -14 a 0 0 0 0 1 0 0 v -14 a 0 0 0 0 1 0 0 Z" fill="#8A9199"/><path d="M 57 -16 h 14 a 0 0 0 0 1 0 0 v 80 a 0 0 0 0 1 0 0 h -14 a 0 0 0 0 1 0 0 v -80 a 0 0 0 0 1 0 0 Z" fill="#8A9199"/><path d="M 60 0 h 8 a 0 0 0 0 1 0 0 v 64 a 0 0 0 0 1 0 0 h -8 a 0 0 0 0 1 0 0 v -64 a 0 0 0 0 1 0 0 Z" fill="#FFFFFF14"/><path d="M 58 69 h 12 a 3 3 0 0 1 3 3 v 0 a 3 3 0 0 1 -3 3 h -12 a 3 3 0 0 1 -3 -3 v 0 a 3 3 0 0 1 3 -3 Z" fill="#5F5E5A"/></g><g transform="translate(256 0)"><path d="M 57 57 h 14 a 0 0 0 0 1 0 0 v 14 a 0 0 0 0 1 0 0 h -14 a 0 0 0 0 1 0 0 v -14 a 0 0 0 0 1 0 0 Z" fill="#3A342E" stroke="#3A342E" stroke-width="5" stroke-linejoin="round" stroke-linecap="round"/><path d="M 64 57 h 80 a 0 0 0 0 1 0 0 v 14 a 0 0 0 0 1 0 0 h -80 a 0 0 0 0 1 0 0 v -14 a 0 0 0 0 1 0 0 Z" fill="#3A342E" stroke="#3A342E" stroke-width="5" stroke-linejoin="round" stroke-linecap="round"/><path d="M 56 55 h 0 a 3 3 0 0 1 3 3 v 12 a 3 3 0 0 1 -3 3 h 0 a 3 3 0 0 1 -3 -3 v -12 a 3 3 0 0 1 3 -3 Z" fill="#3A342E" stroke="#3A342E" stroke-width="5" stroke-linejoin="round" stroke-linecap="round"/><path d="M 57 57 h 14 a 0 0 0 0 1 0 0 v 14 a 0 0 0 0 1 0 0 h -14 a 0 0 0 0 1 0 0 v -14 a 0 0 0 0 1 0 0 Z" fill="#8A9199"/><path d="M 64 57 h 80 a 0 0 0 0 1 0 0 v 14 a 0 0 0 0 1 0 0 h -80 a 0 0 0 0 1 0 0 v -14 a 0 0 0 0 1 0 0 Z" fill="#8A9199"/><path d="M 64 60 h 64 a 0 0 0 0 1 0 0 v 8 a 0 0 0 0 1 0 0 h -64 a 0 0 0 0 1 0 0 v -8 a 0 0 0 0 1 0 0 Z" fill="#FFFFFF14"/><path d="M 56 55 h 0 a 3 3 0 0 1 3 3 v 12 a 3 3 0 0 1 -3 3 h 0 a 3 3 0 0 1 -3 -3 v -12 a 3 3 0 0 1 3 -3 Z" fill="#5F5E5A"/></g><g transform="translate(384 0)"><path d="M 57 57 h 14 a 0 0 0 0 1 0 0 v 14 a 0 0 0 0 1 0 0 h -14 a 0 0 0 0 1 0 0 v -14 a 0 0 0 0 1 0 0 Z" fill="#3A342E" stroke="#3A342E" stroke-width="5" stroke-linejoin="round" stroke-linecap="round"/><path d="M 57 -16 h 14 a 0 0 0 0 1 0 0 v 80 a 0 0 0 0 1 0 0 h -14 a 0 0 0 0 1 0 0 v -80 a 0 0 0 0 1 0 0 Z" fill="#3A342E" stroke="#3A342E" stroke-width="5" stroke-linejoin="round" stroke-linecap="round"/><path d="M 64 57 h 80 a 0 0 0 0 1 0 0 v 14 a 0 0 0 0 1 0 0 h -80 a 0 0 0 0 1 0 0 v -14 a 0 0 0 0 1 0 0 Z" fill="#3A342E" stroke="#3A342E" stroke-width="5" stroke-linejoin="round" stroke-linecap="round"/><path d="M 56 55 h 0 a 3 3 0 0 1 3 3 v 12 a 3 3 0 0 1 -3 3 h 0 a 3 3 0 0 1 -3 -3 v -12 a 3 3 0 0 1 3 -3 Z" fill="#3A342E" stroke="#3A342E" stroke-width="5" stroke-linejoin="round" stroke-linecap="round"/><path d="M 58 69 h 12 a 3 3 0 0 1 3 3 v 0 a 3 3 0 0 1 -3 3 h -12 a 3 3 0 0 1 -3 -3 v 0 a 3 3 0 0 1 3 -3 Z" fill="#3A342E" stroke="#3A342E" stroke-width="5" stroke-linejoin="round" stroke-linecap="round"/><path d="M 57 57 h 14 a 0 0 0 0 1 0 0 v 14 a 0 0 0 0 1 0 0 h -14 a 0 0 0 0 1 0 0 v -14 a 0 0 0 0 1 0 0 Z" fill="#8A9199"/><path d="M 57 -16 h 14 a 0 0 0 0 1 0 0 v 80 a 0 0 0 0 1 0 0 h -14 a 0 0 0 0 1 0 0 v -80 a 0 0 0 0 1 0 0 Z" fill="#8A9199"/><path d="M 64 57 h 80 a 0 0 0 0 1 0 0 v 14 a 0 0 0 0 1 0 0 h -80 a 0 0 0 0 1 0 0 v -14 a 0 0 0 0 1 0 0 Z" fill="#8A9199"/><path d="M 60 0 h 8 a 0 0 0 0 1 0 0 v 64 a 0 0 0 0 1 0 0 h -8 a 0 0 0 0 1 0 0 v -64 a 0 0 0 0 1 0 0 Z" fill="#FFFFFF14"/><path d="M 64 60 h 64 a 0 0 0 0 1 0 0 v 8 a 0 0 0 0 1 0 0 h -64 a 0 0 0 0 1 0 0 v -8 a 0 0 0 0 1 0 0 Z" fill="#FFFFFF14"/><path d="M 56 55 h 0 a 3 3 0 0 1 3 3 v 12 a 3 3 0 0 1 -3 3 h 0 a 3 3 0 0 1 -3 -3 v -12 a 3 3 0 0 1 3 -3 Z" fill="#5F5E5A"/><path d="M 58 69 h 12 a 3 3 0 0 1 3 3 v 0 a 3 3 0 0 1 -3 3 h -12 a 3 3 0 0 1 -3 -3 v 0 a 3 3 0 0 1 3 -3 Z" fill="#5F5E5A"/></g><g transform="translate(0 128)"><path d="M 57 57 h 14 a 0 0 0 0 1 0 0 v 14 a 0 0 0 0 1 0 0 h -14 a 0 0 0 0 1 0 0 v -14 a 0 0 0 0 1 0 0 Z" fill="#3A342E" stroke="#3A342E" stroke-width="5" stroke-linejoin="round" stroke-linecap="round"/><path d="M 57 64 h 14 a 0 0 0 0 1 0 0 v 80 a 0 0 0 0 1 0 0 h -14 a 0 0 0 0 1 0 0 v -80 a 0 0 0 0 1 0 0 Z" fill="#3A342E" stroke="#3A342E" stroke-width="5" stroke-linejoin="round" stroke-linecap="round"/><path d="M 58 53 h 12 a 3 3 0 0 1 3 3 v 0 a 3 3 0 0 1 -3 3 h -12 a 3 3 0 0 1 -3 -3 v 0 a 3 3 0 0 1 3 -3 Z" fill="#3A342E" stroke="#3A342E" stroke-width="5" stroke-linejoin="round" stroke-linecap="round"/><path d="M 57 57 h 14 a 0 0 0 0 1 0 0 v 14 a 0 0 0 0 1 0 0 h -14 a 0 0 0 0 1 0 0 v -14 a 0 0 0 0 1 0 0 Z" fill="#8A9199"/><path d="M 57 64 h 14 a 0 0 0 0 1 0 0 v 80 a 0 0 0 0 1 0 0 h -14 a 0 0 0 0 1 0 0 v -80 a 0 0 0 0 1 0 0 Z" fill="#8A9199"/><path d="M 60 64 h 8 a 0 0 0 0 1 0 0 v 64 a 0 0 0 0 1 0 0 h -8 a 0 0 0 0 1 0 0 v -64 a 0 0 0 0 1 0 0 Z" fill="#FFFFFF14"/><path d="M 58 53 h 12 a 3 3 0 0 1 3 3 v 0 a 3 3 0 0 1 -3 3 h -12 a 3 3 0 0 1 -3 -3 v 0 a 3 3 0 0 1 3 -3 Z" fill="#5F5E5A"/></g><g transform="translate(128 128)"><path d="M 57 57 h 14 a 0 0 0 0 1 0 0 v 14 a 0 0 0 0 1 0 0 h -14 a 0 0 0 0 1 0 0 v -14 a 0 0 0 0 1 0 0 Z" fill="#3A342E" stroke="#3A342E" stroke-width="5" stroke-linejoin="round" stroke-linecap="round"/><path d="M 57 -16 h 14 a 0 0 0 0 1 0 0 v 80 a 0 0 0 0 1 0 0 h -14 a 0 0 0 0 1 0 0 v -80 a 0 0 0 0 1 0 0 Z" fill="#3A342E" stroke="#3A342E" stroke-width="5" stroke-linejoin="round" stroke-linecap="round"/><path d="M 57 64 h 14 a 0 0 0 0 1 0 0 v 80 a 0 0 0 0 1 0 0 h -14 a 0 0 0 0 1 0 0 v -80 a 0 0 0 0 1 0 0 Z" fill="#3A342E" stroke="#3A342E" stroke-width="5" stroke-linejoin="round" stroke-linecap="round"/><path d="M 57 57 h 14 a 0 0 0 0 1 0 0 v 14 a 0 0 0 0 1 0 0 h -14 a 0 0 0 0 1 0 0 v -14 a 0 0 0 0 1 0 0 Z" fill="#8A9199"/><path d="M 57 -16 h 14 a 0 0 0 0 1 0 0 v 80 a 0 0 0 0 1 0 0 h -14 a 0 0 0 0 1 0 0 v -80 a 0 0 0 0 1 0 0 Z" fill="#8A9199"/><path d="M 57 64 h 14 a 0 0 0 0 1 0 0 v 80 a 0 0 0 0 1 0 0 h -14 a 0 0 0 0 1 0 0 v -80 a 0 0 0 0 1 0 0 Z" fill="#8A9199"/><path d="M 60 0 h 8 a 0 0 0 0 1 0 0 v 64 a 0 0 0 0 1 0 0 h -8 a 0 0 0 0 1 0 0 v -64 a 0 0 0 0 1 0 0 Z" fill="#FFFFFF14"/><path d="M 60 64 h 8 a 0 0 0 0 1 0 0 v 64 a 0 0 0 0 1 0 0 h -8 a 0 0 0 0 1 0 0 v -64 a 0 0 0 0 1 0 0 Z" fill="#FFFFFF14"/></g><g transform="translate(256 128)"><path d="M 57 57 h 14 a 0 0 0 0 1 0 0 v 14 a 0 0 0 0 1 0 0 h -14 a 0 0 0 0 1 0 0 v -14 a 0 0 0 0 1 0 0 Z" fill="#3A342E" stroke="#3A342E" stroke-width="5" stroke-linejoin="round" stroke-linecap="round"/><path d="M 57 64 h 14 a 0 0 0 0 1 0 0 v 80 a 0 0 0 0 1 0 0 h -14 a 0 0 0 0 1 0 0 v -80 a 0 0 0 0 1 0 0 Z" fill="#3A342E" stroke="#3A342E" stroke-width="5" stroke-linejoin="round" stroke-linecap="round"/><path d="M 64 57 h 80 a 0 0 0 0 1 0 0 v 14 a 0 0 0 0 1 0 0 h -80 a 0 0 0 0 1 0 0 v -14 a 0 0 0 0 1 0 0 Z" fill="#3A342E" stroke="#3A342E" stroke-width="5" stroke-linejoin="round" stroke-linecap="round"/><path d="M 56 55 h 0 a 3 3 0 0 1 3 3 v 12 a 3 3 0 0 1 -3 3 h 0 a 3 3 0 0 1 -3 -3 v -12 a 3 3 0 0 1 3 -3 Z" fill="#3A342E" stroke="#3A342E" stroke-width="5" stroke-linejoin="round" stroke-linecap="round"/><path d="M 58 53 h 12 a 3 3 0 0 1 3 3 v 0 a 3 3 0 0 1 -3 3 h -12 a 3 3 0 0 1 -3 -3 v 0 a 3 3 0 0 1 3 -3 Z" fill="#3A342E" stroke="#3A342E" stroke-width="5" stroke-linejoin="round" stroke-linecap="round"/><path d="M 57 57 h 14 a 0 0 0 0 1 0 0 v 14 a 0 0 0 0 1 0 0 h -14 a 0 0 0 0 1 0 0 v -14 a 0 0 0 0 1 0 0 Z" fill="#8A9199"/><path d="M 57 64 h 14 a 0 0 0 0 1 0 0 v 80 a 0 0 0 0 1 0 0 h -14 a 0 0 0 0 1 0 0 v -80 a 0 0 0 0 1 0 0 Z" fill="#8A9199"/><path d="M 64 57 h 80 a 0 0 0 0 1 0 0 v 14 a 0 0 0 0 1 0 0 h -80 a 0 0 0 0 1 0 0 v -14 a 0 0 0 0 1 0 0 Z" fill="#8A9199"/><path d="M 60 64 h 8 a 0 0 0 0 1 0 0 v 64 a 0 0 0 0 1 0 0 h -8 a 0 0 0 0 1 0 0 v -64 a 0 0 0 0 1 0 0 Z" fill="#FFFFFF14"/><path d="M 64 60 h 64 a 0 0 0 0 1 0 0 v 8 a 0 0 0 0 1 0 0 h -64 a 0 0 0 0 1 0 0 v -8 a 0 0 0 0 1 0 0 Z" fill="#FFFFFF14"/><path d="M 56 55 h 0 a 3 3 0 0 1 3 3 v 12 a 3 3 0 0 1 -3 3 h 0 a 3 3 0 0 1 -3 -3 v -12 a 3 3 0 0 1 3 -3 Z" fill="#5F5E5A"/><path d="M 58 53 h 12 a 3 3 0 0 1 3 3 v 0 a 3 3 0 0 1 -3 3 h -12 a 3 3 0 0 1 -3 -3 v 0 a 3 3 0 0 1 3 -3 Z" fill="#5F5E5A"/></g><g transform="translate(384 128)"><path d="M 57 57 h 14 a 0 0 0 0 1 0 0 v 14 a 0 0 0 0 1 0 0 h -14 a 0 0 0 0 1 0 0 v -14 a 0 0 0 0 1 0 0 Z" fill="#3A342E" stroke="#3A342E" stroke-width="5" stroke-linejoin="round" stroke-linecap="round"/><path d="M 57 -16 h 14 a 0 0 0 0 1 0 0 v 80 a 0 0 0 0 1 0 0 h -14 a 0 0 0 0 1 0 0 v -80 a 0 0 0 0 1 0 0 Z" fill="#3A342E" stroke="#3A342E" stroke-width="5" stroke-linejoin="round" stroke-linecap="round"/><path d="M 57 64 h 14 a 0 0 0 0 1 0 0 v 80 a 0 0 0 0 1 0 0 h -14 a 0 0 0 0 1 0 0 v -80 a 0 0 0 0 1 0 0 Z" fill="#3A342E" stroke="#3A342E" stroke-width="5" stroke-linejoin="round" stroke-linecap="round"/><path d="M 64 57 h 80 a 0 0 0 0 1 0 0 v 14 a 0 0 0 0 1 0 0 h -80 a 0 0 0 0 1 0 0 v -14 a 0 0 0 0 1 0 0 Z" fill="#3A342E" stroke="#3A342E" stroke-width="5" stroke-linejoin="round" stroke-linecap="round"/><path d="M 56 55 h 0 a 3 3 0 0 1 3 3 v 12 a 3 3 0 0 1 -3 3 h 0 a 3 3 0 0 1 -3 -3 v -12 a 3 3 0 0 1 3 -3 Z" fill="#3A342E" stroke="#3A342E" stroke-width="5" stroke-linejoin="round" stroke-linecap="round"/><path d="M 59 55 h 10 a 4 4 0 0 1 4 4 v 10 a 4 4 0 0 1 -4 4 h -10 a 4 4 0 0 1 -4 -4 v -10 a 4 4 0 0 1 4 -4 Z" fill="#3A342E" stroke="#3A342E" stroke-width="5" stroke-linejoin="round" stroke-linecap="round"/><path d="M 57 57 h 14 a 0 0 0 0 1 0 0 v 14 a 0 0 0 0 1 0 0 h -14 a 0 0 0 0 1 0 0 v -14 a 0 0 0 0 1 0 0 Z" fill="#8A9199"/><path d="M 57 -16 h 14 a 0 0 0 0 1 0 0 v 80 a 0 0 0 0 1 0 0 h -14 a 0 0 0 0 1 0 0 v -80 a 0 0 0 0 1 0 0 Z" fill="#8A9199"/><path d="M 57 64 h 14 a 0 0 0 0 1 0 0 v 80 a 0 0 0 0 1 0 0 h -14 a 0 0 0 0 1 0 0 v -80 a 0 0 0 0 1 0 0 Z" fill="#8A9199"/><path d="M 64 57 h 80 a 0 0 0 0 1 0 0 v 14 a 0 0 0 0 1 0 0 h -80 a 0 0 0 0 1 0 0 v -14 a 0 0 0 0 1 0 0 Z" fill="#8A9199"/><path d="M 60 0 h 8 a 0 0 0 0 1 0 0 v 64 a 0 0 0 0 1 0 0 h -8 a 0 0 0 0 1 0 0 v -64 a 0 0 0 0 1 0 0 Z" fill="#FFFFFF14"/><path d="M 60 64 h 8 a 0 0 0 0 1 0 0 v 64 a 0 0 0 0 1 0 0 h -8 a 0 0 0 0 1 0 0 v -64 a 0 0 0 0 1 0 0 Z" fill="#FFFFFF14"/><path d="M 64 60 h 64 a 0 0 0 0 1 0 0 v 8 a 0 0 0 0 1 0 0 h -64 a 0 0 0 0 1 0 0 v -8 a 0 0 0 0 1 0 0 Z" fill="#FFFFFF14"/><path d="M 56 55 h 0 a 3 3 0 0 1 3 3 v 12 a 3 3 0 0 1 -3 3 h 0 a 3 3 0 0 1 -3 -3 v -12 a 3 3 0 0 1 3 -3 Z" fill="#5F5E5A"/><path d="M 59 55 h 10 a 4 4 0 0 1 4 4 v 10 a 4 4 0 0 1 -4 4 h -10 a 4 4 0 0 1 -4 -4 v -10 a 4 4 0 0 1 4 -4 Z" fill="#5F5E5A"/></g><g transform="translate(0 256)"><path d="M 57 57 h 14 a 0 0 0 0 1 0 0 v 14 a 0 0 0 0 1 0 0 h -14 a 0 0 0 0 1 0 0 v -14 a 0 0 0 0 1 0 0 Z" fill="#3A342E" stroke="#3A342E" stroke-width="5" stroke-linejoin="round" stroke-linecap="round"/><path d="M -16 57 h 80 a 0 0 0 0 1 0 0 v 14 a 0 0 0 0 1 0 0 h -80 a 0 0 0 0 1 0 0 v -14 a 0 0 0 0 1 0 0 Z" fill="#3A342E" stroke="#3A342E" stroke-width="5" stroke-linejoin="round" stroke-linecap="round"/><path d="M 72 55 h 0 a 3 3 0 0 1 3 3 v 12 a 3 3 0 0 1 -3 3 h 0 a 3 3 0 0 1 -3 -3 v -12 a 3 3 0 0 1 3 -3 Z" fill="#3A342E" stroke="#3A342E" stroke-width="5" stroke-linejoin="round" stroke-linecap="round"/><path d="M 57 57 h 14 a 0 0 0 0 1 0 0 v 14 a 0 0 0 0 1 0 0 h -14 a 0 0 0 0 1 0 0 v -14 a 0 0 0 0 1 0 0 Z" fill="#8A9199"/><path d="M -16 57 h 80 a 0 0 0 0 1 0 0 v 14 a 0 0 0 0 1 0 0 h -80 a 0 0 0 0 1 0 0 v -14 a 0 0 0 0 1 0 0 Z" fill="#8A9199"/><path d="M 0 60 h 64 a 0 0 0 0 1 0 0 v 8 a 0 0 0 0 1 0 0 h -64 a 0 0 0 0 1 0 0 v -8 a 0 0 0 0 1 0 0 Z" fill="#FFFFFF14"/><path d="M 72 55 h 0 a 3 3 0 0 1 3 3 v 12 a 3 3 0 0 1 -3 3 h 0 a 3 3 0 0 1 -3 -3 v -12 a 3 3 0 0 1 3 -3 Z" fill="#5F5E5A"/></g><g transform="translate(128 256)"><path d="M 57 57 h 14 a 0 0 0 0 1 0 0 v 14 a 0 0 0 0 1 0 0 h -14 a 0 0 0 0 1 0 0 v -14 a 0 0 0 0 1 0 0 Z" fill="#3A342E" stroke="#3A342E" stroke-width="5" stroke-linejoin="round" stroke-linecap="round"/><path d="M 57 -16 h 14 a 0 0 0 0 1 0 0 v 80 a 0 0 0 0 1 0 0 h -14 a 0 0 0 0 1 0 0 v -80 a 0 0 0 0 1 0 0 Z" fill="#3A342E" stroke="#3A342E" stroke-width="5" stroke-linejoin="round" stroke-linecap="round"/><path d="M -16 57 h 80 a 0 0 0 0 1 0 0 v 14 a 0 0 0 0 1 0 0 h -80 a 0 0 0 0 1 0 0 v -14 a 0 0 0 0 1 0 0 Z" fill="#3A342E" stroke="#3A342E" stroke-width="5" stroke-linejoin="round" stroke-linecap="round"/><path d="M 72 55 h 0 a 3 3 0 0 1 3 3 v 12 a 3 3 0 0 1 -3 3 h 0 a 3 3 0 0 1 -3 -3 v -12 a 3 3 0 0 1 3 -3 Z" fill="#3A342E" stroke="#3A342E" stroke-width="5" stroke-linejoin="round" stroke-linecap="round"/><path d="M 58 69 h 12 a 3 3 0 0 1 3 3 v 0 a 3 3 0 0 1 -3 3 h -12 a 3 3 0 0 1 -3 -3 v 0 a 3 3 0 0 1 3 -3 Z" fill="#3A342E" stroke="#3A342E" stroke-width="5" stroke-linejoin="round" stroke-linecap="round"/><path d="M 57 57 h 14 a 0 0 0 0 1 0 0 v 14 a 0 0 0 0 1 0 0 h -14 a 0 0 0 0 1 0 0 v -14 a 0 0 0 0 1 0 0 Z" fill="#8A9199"/><path d="M 57 -16 h 14 a 0 0 0 0 1 0 0 v 80 a 0 0 0 0 1 0 0 h -14 a 0 0 0 0 1 0 0 v -80 a 0 0 0 0 1 0 0 Z" fill="#8A9199"/><path d="M -16 57 h 80 a 0 0 0 0 1 0 0 v 14 a 0 0 0 0 1 0 0 h -80 a 0 0 0 0 1 0 0 v -14 a 0 0 0 0 1 0 0 Z" fill="#8A9199"/><path d="M 60 0 h 8 a 0 0 0 0 1 0 0 v 64 a 0 0 0 0 1 0 0 h -8 a 0 0 0 0 1 0 0 v -64 a 0 0 0 0 1 0 0 Z" fill="#FFFFFF14"/><path d="M 0 60 h 64 a 0 0 0 0 1 0 0 v 8 a 0 0 0 0 1 0 0 h -64 a 0 0 0 0 1 0 0 v -8 a 0 0 0 0 1 0 0 Z" fill="#FFFFFF14"/><path d="M 72 55 h 0 a 3 3 0 0 1 3 3 v 12 a 3 3 0 0 1 -3 3 h 0 a 3 3 0 0 1 -3 -3 v -12 a 3 3 0 0 1 3 -3 Z" fill="#5F5E5A"/><path d="M 58 69 h 12 a 3 3 0 0 1 3 3 v 0 a 3 3 0 0 1 -3 3 h -12 a 3 3 0 0 1 -3 -3 v 0 a 3 3 0 0 1 3 -3 Z" fill="#5F5E5A"/></g><g transform="translate(256 256)"><path d="M 57 57 h 14 a 0 0 0 0 1 0 0 v 14 a 0 0 0 0 1 0 0 h -14 a 0 0 0 0 1 0 0 v -14 a 0 0 0 0 1 0 0 Z" fill="#3A342E" stroke="#3A342E" stroke-width="5" stroke-linejoin="round" stroke-linecap="round"/><path d="M -16 57 h 80 a 0 0 0 0 1 0 0 v 14 a 0 0 0 0 1 0 0 h -80 a 0 0 0 0 1 0 0 v -14 a 0 0 0 0 1 0 0 Z" fill="#3A342E" stroke="#3A342E" stroke-width="5" stroke-linejoin="round" stroke-linecap="round"/><path d="M 64 57 h 80 a 0 0 0 0 1 0 0 v 14 a 0 0 0 0 1 0 0 h -80 a 0 0 0 0 1 0 0 v -14 a 0 0 0 0 1 0 0 Z" fill="#3A342E" stroke="#3A342E" stroke-width="5" stroke-linejoin="round" stroke-linecap="round"/><path d="M 57 57 h 14 a 0 0 0 0 1 0 0 v 14 a 0 0 0 0 1 0 0 h -14 a 0 0 0 0 1 0 0 v -14 a 0 0 0 0 1 0 0 Z" fill="#8A9199"/><path d="M -16 57 h 80 a 0 0 0 0 1 0 0 v 14 a 0 0 0 0 1 0 0 h -80 a 0 0 0 0 1 0 0 v -14 a 0 0 0 0 1 0 0 Z" fill="#8A9199"/><path d="M 64 57 h 80 a 0 0 0 0 1 0 0 v 14 a 0 0 0 0 1 0 0 h -80 a 0 0 0 0 1 0 0 v -14 a 0 0 0 0 1 0 0 Z" fill="#8A9199"/><path d="M 0 60 h 64 a 0 0 0 0 1 0 0 v 8 a 0 0 0 0 1 0 0 h -64 a 0 0 0 0 1 0 0 v -8 a 0 0 0 0 1 0 0 Z" fill="#FFFFFF14"/><path d="M 64 60 h 64 a 0 0 0 0 1 0 0 v 8 a 0 0 0 0 1 0 0 h -64 a 0 0 0 0 1 0 0 v -8 a 0 0 0 0 1 0 0 Z" fill="#FFFFFF14"/></g><g transform="translate(384 256)"><path d="M 57 57 h 14 a 0 0 0 0 1 0 0 v 14 a 0 0 0 0 1 0 0 h -14 a 0 0 0 0 1 0 0 v -14 a 0 0 0 0 1 0 0 Z" fill="#3A342E" stroke="#3A342E" stroke-width="5" stroke-linejoin="round" stroke-linecap="round"/><path d="M 57 -16 h 14 a 0 0 0 0 1 0 0 v 80 a 0 0 0 0 1 0 0 h -14 a 0 0 0 0 1 0 0 v -80 a 0 0 0 0 1 0 0 Z" fill="#3A342E" stroke="#3A342E" stroke-width="5" stroke-linejoin="round" stroke-linecap="round"/><path d="M -16 57 h 80 a 0 0 0 0 1 0 0 v 14 a 0 0 0 0 1 0 0 h -80 a 0 0 0 0 1 0 0 v -14 a 0 0 0 0 1 0 0 Z" fill="#3A342E" stroke="#3A342E" stroke-width="5" stroke-linejoin="round" stroke-linecap="round"/><path d="M 64 57 h 80 a 0 0 0 0 1 0 0 v 14 a 0 0 0 0 1 0 0 h -80 a 0 0 0 0 1 0 0 v -14 a 0 0 0 0 1 0 0 Z" fill="#3A342E" stroke="#3A342E" stroke-width="5" stroke-linejoin="round" stroke-linecap="round"/><path d="M 58 69 h 12 a 3 3 0 0 1 3 3 v 0 a 3 3 0 0 1 -3 3 h -12 a 3 3 0 0 1 -3 -3 v 0 a 3 3 0 0 1 3 -3 Z" fill="#3A342E" stroke="#3A342E" stroke-width="5" stroke-linejoin="round" stroke-linecap="round"/><path d="M 59 55 h 10 a 4 4 0 0 1 4 4 v 10 a 4 4 0 0 1 -4 4 h -10 a 4 4 0 0 1 -4 -4 v -10 a 4 4 0 0 1 4 -4 Z" fill="#3A342E" stroke="#3A342E" stroke-width="5" stroke-linejoin="round" stroke-linecap="round"/><path d="M 57 57 h 14 a 0 0 0 0 1 0 0 v 14 a 0 0 0 0 1 0 0 h -14 a 0 0 0 0 1 0 0 v -14 a 0 0 0 0 1 0 0 Z" fill="#8A9199"/><path d="M 57 -16 h 14 a 0 0 0 0 1 0 0 v 80 a 0 0 0 0 1 0 0 h -14 a 0 0 0 0 1 0 0 v -80 a 0 0 0 0 1 0 0 Z" fill="#8A9199"/><path d="M -16 57 h 80 a 0 0 0 0 1 0 0 v 14 a 0 0 0 0 1 0 0 h -80 a 0 0 0 0 1 0 0 v -14 a 0 0 0 0 1 0 0 Z" fill="#8A9199"/><path d="M 64 57 h 80 a 0 0 0 0 1 0 0 v 14 a 0 0 0 0 1 0 0 h -80 a 0 0 0 0 1 0 0 v -14 a 0 0 0 0 1 0 0 Z" fill="#8A9199"/><path d="M 60 0 h 8 a 0 0 0 0 1 0 0 v 64 a 0 0 0 0 1 0 0 h -8 a 0 0 0 0 1 0 0 v -64 a 0 0 0 0 1 0 0 Z" fill="#FFFFFF14"/><path d="M 0 60 h 64 a 0 0 0 0 1 0 0 v 8 a 0 0 0 0 1 0 0 h -64 a 0 0 0 0 1 0 0 v -8 a 0 0 0 0 1 0 0 Z" fill="#FFFFFF14"/><path d="M 64 60 h 64 a 0 0 0 0 1 0 0 v 8 a 0 0 0 0 1 0 0 h -64 a 0 0 0 0 1 0 0 v -8 a 0 0 0 0 1 0 0 Z" fill="#FFFFFF14"/><path d="M 58 69 h 12 a 3 3 0 0 1 3 3 v 0 a 3 3 0 0 1 -3 3 h -12 a 3 3 0 0 1 -3 -3 v 0 a 3 3 0 0 1 3 -3 Z" fill="#5F5E5A"/><path d="M 59 55 h 10 a 4 4 0 0 1 4 4 v 10 a 4 4 0 0 1 -4 4 h -10 a 4 4 0 0 1 -4 -4 v -10 a 4 4 0 0 1 4 -4 Z" fill="#5F5E5A"/></g><g transform="translate(0 384)"><path d="M 57 57 h 14 a 0 0 0 0 1 0 0 v 14 a 0 0 0 0 1 0 0 h -14 a 0 0 0 0 1 0 0 v -14 a 0 0 0 0 1 0 0 Z" fill="#3A342E" stroke="#3A342E" stroke-width="5" stroke-linejoin="round" stroke-linecap="round"/><path d="M 57 64 h 14 a 0 0 0 0 1 0 0 v 80 a 0 0 0 0 1 0 0 h -14 a 0 0 0 0 1 0 0 v -80 a 0 0 0 0 1 0 0 Z" fill="#3A342E" stroke="#3A342E" stroke-width="5" stroke-linejoin="round" stroke-linecap="round"/><path d="M -16 57 h 80 a 0 0 0 0 1 0 0 v 14 a 0 0 0 0 1 0 0 h -80 a 0 0 0 0 1 0 0 v -14 a 0 0 0 0 1 0 0 Z" fill="#3A342E" stroke="#3A342E" stroke-width="5" stroke-linejoin="round" stroke-linecap="round"/><path d="M 72 55 h 0 a 3 3 0 0 1 3 3 v 12 a 3 3 0 0 1 -3 3 h 0 a 3 3 0 0 1 -3 -3 v -12 a 3 3 0 0 1 3 -3 Z" fill="#3A342E" stroke="#3A342E" stroke-width="5" stroke-linejoin="round" stroke-linecap="round"/><path d="M 58 53 h 12 a 3 3 0 0 1 3 3 v 0 a 3 3 0 0 1 -3 3 h -12 a 3 3 0 0 1 -3 -3 v 0 a 3 3 0 0 1 3 -3 Z" fill="#3A342E" stroke="#3A342E" stroke-width="5" stroke-linejoin="round" stroke-linecap="round"/><path d="M 57 57 h 14 a 0 0 0 0 1 0 0 v 14 a 0 0 0 0 1 0 0 h -14 a 0 0 0 0 1 0 0 v -14 a 0 0 0 0 1 0 0 Z" fill="#8A9199"/><path d="M 57 64 h 14 a 0 0 0 0 1 0 0 v 80 a 0 0 0 0 1 0 0 h -14 a 0 0 0 0 1 0 0 v -80 a 0 0 0 0 1 0 0 Z" fill="#8A9199"/><path d="M -16 57 h 80 a 0 0 0 0 1 0 0 v 14 a 0 0 0 0 1 0 0 h -80 a 0 0 0 0 1 0 0 v -14 a 0 0 0 0 1 0 0 Z" fill="#8A9199"/><path d="M 60 64 h 8 a 0 0 0 0 1 0 0 v 64 a 0 0 0 0 1 0 0 h -8 a 0 0 0 0 1 0 0 v -64 a 0 0 0 0 1 0 0 Z" fill="#FFFFFF14"/><path d="M 0 60 h 64 a 0 0 0 0 1 0 0 v 8 a 0 0 0 0 1 0 0 h -64 a 0 0 0 0 1 0 0 v -8 a 0 0 0 0 1 0 0 Z" fill="#FFFFFF14"/><path d="M 72 55 h 0 a 3 3 0 0 1 3 3 v 12 a 3 3 0 0 1 -3 3 h 0 a 3 3 0 0 1 -3 -3 v -12 a 3 3 0 0 1 3 -3 Z" fill="#5F5E5A"/><path d="M 58 53 h 12 a 3 3 0 0 1 3 3 v 0 a 3 3 0 0 1 -3 3 h -12 a 3 3 0 0 1 -3 -3 v 0 a 3 3 0 0 1 3 -3 Z" fill="#5F5E5A"/></g><g transform="translate(128 384)"><path d="M 57 57 h 14 a 0 0 0 0 1 0 0 v 14 a 0 0 0 0 1 0 0 h -14 a 0 0 0 0 1 0 0 v -14 a 0 0 0 0 1 0 0 Z" fill="#3A342E" stroke="#3A342E" stroke-width="5" stroke-linejoin="round" stroke-linecap="round"/><path d="M 57 -16 h 14 a 0 0 0 0 1 0 0 v 80 a 0 0 0 0 1 0 0 h -14 a 0 0 0 0 1 0 0 v -80 a 0 0 0 0 1 0 0 Z" fill="#3A342E" stroke="#3A342E" stroke-width="5" stroke-linejoin="round" stroke-linecap="round"/><path d="M 57 64 h 14 a 0 0 0 0 1 0 0 v 80 a 0 0 0 0 1 0 0 h -14 a 0 0 0 0 1 0 0 v -80 a 0 0 0 0 1 0 0 Z" fill="#3A342E" stroke="#3A342E" stroke-width="5" stroke-linejoin="round" stroke-linecap="round"/><path d="M -16 57 h 80 a 0 0 0 0 1 0 0 v 14 a 0 0 0 0 1 0 0 h -80 a 0 0 0 0 1 0 0 v -14 a 0 0 0 0 1 0 0 Z" fill="#3A342E" stroke="#3A342E" stroke-width="5" stroke-linejoin="round" stroke-linecap="round"/><path d="M 72 55 h 0 a 3 3 0 0 1 3 3 v 12 a 3 3 0 0 1 -3 3 h 0 a 3 3 0 0 1 -3 -3 v -12 a 3 3 0 0 1 3 -3 Z" fill="#3A342E" stroke="#3A342E" stroke-width="5" stroke-linejoin="round" stroke-linecap="round"/><path d="M 59 55 h 10 a 4 4 0 0 1 4 4 v 10 a 4 4 0 0 1 -4 4 h -10 a 4 4 0 0 1 -4 -4 v -10 a 4 4 0 0 1 4 -4 Z" fill="#3A342E" stroke="#3A342E" stroke-width="5" stroke-linejoin="round" stroke-linecap="round"/><path d="M 57 57 h 14 a 0 0 0 0 1 0 0 v 14 a 0 0 0 0 1 0 0 h -14 a 0 0 0 0 1 0 0 v -14 a 0 0 0 0 1 0 0 Z" fill="#8A9199"/><path d="M 57 -16 h 14 a 0 0 0 0 1 0 0 v 80 a 0 0 0 0 1 0 0 h -14 a 0 0 0 0 1 0 0 v -80 a 0 0 0 0 1 0 0 Z" fill="#8A9199"/><path d="M 57 64 h 14 a 0 0 0 0 1 0 0 v 80 a 0 0 0 0 1 0 0 h -14 a 0 0 0 0 1 0 0 v -80 a 0 0 0 0 1 0 0 Z" fill="#8A9199"/><path d="M -16 57 h 80 a 0 0 0 0 1 0 0 v 14 a 0 0 0 0 1 0 0 h -80 a 0 0 0 0 1 0 0 v -14 a 0 0 0 0 1 0 0 Z" fill="#8A9199"/><path d="M 60 0 h 8 a 0 0 0 0 1 0 0 v 64 a 0 0 0 0 1 0 0 h -8 a 0 0 0 0 1 0 0 v -64 a 0 0 0 0 1 0 0 Z" fill="#FFFFFF14"/><path d="M 60 64 h 8 a 0 0 0 0 1 0 0 v 64 a 0 0 0 0 1 0 0 h -8 a 0 0 0 0 1 0 0 v -64 a 0 0 0 0 1 0 0 Z" fill="#FFFFFF14"/><path d="M 0 60 h 64 a 0 0 0 0 1 0 0 v 8 a 0 0 0 0 1 0 0 h -64 a 0 0 0 0 1 0 0 v -8 a 0 0 0 0 1 0 0 Z" fill="#FFFFFF14"/><path d="M 72 55 h 0 a 3 3 0 0 1 3 3 v 12 a 3 3 0 0 1 -3 3 h 0 a 3 3 0 0 1 -3 -3 v -12 a 3 3 0 0 1 3 -3 Z" fill="#5F5E5A"/><path d="M 59 55 h 10 a 4 4 0 0 1 4 4 v 10 a 4 4 0 0 1 -4 4 h -10 a 4 4 0 0 1 -4 -4 v -10 a 4 4 0 0 1 4 -4 Z" fill="#5F5E5A"/></g><g transform="translate(256 384)"><path d="M 57 57 h 14 a 0 0 0 0 1 0 0 v 14 a 0 0 0 0 1 0 0 h -14 a 0 0 0 0 1 0 0 v -14 a 0 0 0 0 1 0 0 Z" fill="#3A342E" stroke="#3A342E" stroke-width="5" stroke-linejoin="round" stroke-linecap="round"/><path d="M 57 64 h 14 a 0 0 0 0 1 0 0 v 80 a 0 0 0 0 1 0 0 h -14 a 0 0 0 0 1 0 0 v -80 a 0 0 0 0 1 0 0 Z" fill="#3A342E" stroke="#3A342E" stroke-width="5" stroke-linejoin="round" stroke-linecap="round"/><path d="M -16 57 h 80 a 0 0 0 0 1 0 0 v 14 a 0 0 0 0 1 0 0 h -80 a 0 0 0 0 1 0 0 v -14 a 0 0 0 0 1 0 0 Z" fill="#3A342E" stroke="#3A342E" stroke-width="5" stroke-linejoin="round" stroke-linecap="round"/><path d="M 64 57 h 80 a 0 0 0 0 1 0 0 v 14 a 0 0 0 0 1 0 0 h -80 a 0 0 0 0 1 0 0 v -14 a 0 0 0 0 1 0 0 Z" fill="#3A342E" stroke="#3A342E" stroke-width="5" stroke-linejoin="round" stroke-linecap="round"/><path d="M 58 53 h 12 a 3 3 0 0 1 3 3 v 0 a 3 3 0 0 1 -3 3 h -12 a 3 3 0 0 1 -3 -3 v 0 a 3 3 0 0 1 3 -3 Z" fill="#3A342E" stroke="#3A342E" stroke-width="5" stroke-linejoin="round" stroke-linecap="round"/><path d="M 59 55 h 10 a 4 4 0 0 1 4 4 v 10 a 4 4 0 0 1 -4 4 h -10 a 4 4 0 0 1 -4 -4 v -10 a 4 4 0 0 1 4 -4 Z" fill="#3A342E" stroke="#3A342E" stroke-width="5" stroke-linejoin="round" stroke-linecap="round"/><path d="M 57 57 h 14 a 0 0 0 0 1 0 0 v 14 a 0 0 0 0 1 0 0 h -14 a 0 0 0 0 1 0 0 v -14 a 0 0 0 0 1 0 0 Z" fill="#8A9199"/><path d="M 57 64 h 14 a 0 0 0 0 1 0 0 v 80 a 0 0 0 0 1 0 0 h -14 a 0 0 0 0 1 0 0 v -80 a 0 0 0 0 1 0 0 Z" fill="#8A9199"/><path d="M -16 57 h 80 a 0 0 0 0 1 0 0 v 14 a 0 0 0 0 1 0 0 h -80 a 0 0 0 0 1 0 0 v -14 a 0 0 0 0 1 0 0 Z" fill="#8A9199"/><path d="M 64 57 h 80 a 0 0 0 0 1 0 0 v 14 a 0 0 0 0 1 0 0 h -80 a 0 0 0 0 1 0 0 v -14 a 0 0 0 0 1 0 0 Z" fill="#8A9199"/><path d="M 60 64 h 8 a 0 0 0 0 1 0 0 v 64 a 0 0 0 0 1 0 0 h -8 a 0 0 0 0 1 0 0 v -64 a 0 0 0 0 1 0 0 Z" fill="#FFFFFF14"/><path d="M 0 60 h 64 a 0 0 0 0 1 0 0 v 8 a 0 0 0 0 1 0 0 h -64 a 0 0 0 0 1 0 0 v -8 a 0 0 0 0 1 0 0 Z" fill="#FFFFFF14"/><path d="M 64 60 h 64 a 0 0 0 0 1 0 0 v 8 a 0 0 0 0 1 0 0 h -64 a 0 0 0 0 1 0 0 v -8 a 0 0 0 0 1 0 0 Z" fill="#FFFFFF14"/><path d="M 58 53 h 12 a 3 3 0 0 1 3 3 v 0 a 3 3 0 0 1 -3 3 h -12 a 3 3 0 0 1 -3 -3 v 0 a 3 3 0 0 1 3 -3 Z" fill="#5F5E5A"/><path d="M 59 55 h 10 a 4 4 0 0 1 4 4 v 10 a 4 4 0 0 1 -4 4 h -10 a 4 4 0 0 1 -4 -4 v -10 a 4 4 0 0 1 4 -4 Z" fill="#5F5E5A"/></g><g transform="translate(384 384)"><path d="M 57 57 h 14 a 0 0 0 0 1 0 0 v 14 a 0 0 0 0 1 0 0 h -14 a 0 0 0 0 1 0 0 v -14 a 0 0 0 0 1 0 0 Z" fill="#3A342E" stroke="#3A342E" stroke-width="5" stroke-linejoin="round" stroke-linecap="round"/><path d="M 57 -16 h 14 a 0 0 0 0 1 0 0 v 80 a 0 0 0 0 1 0 0 h -14 a 0 0 0 0 1 0 0 v -80 a 0 0 0 0 1 0 0 Z" fill="#3A342E" stroke="#3A342E" stroke-width="5" stroke-linejoin="round" stroke-linecap="round"/><path d="M 57 64 h 14 a 0 0 0 0 1 0 0 v 80 a 0 0 0 0 1 0 0 h -14 a 0 0 0 0 1 0 0 v -80 a 0 0 0 0 1 0 0 Z" fill="#3A342E" stroke="#3A342E" stroke-width="5" stroke-linejoin="round" stroke-linecap="round"/><path d="M -16 57 h 80 a 0 0 0 0 1 0 0 v 14 a 0 0 0 0 1 0 0 h -80 a 0 0 0 0 1 0 0 v -14 a 0 0 0 0 1 0 0 Z" fill="#3A342E" stroke="#3A342E" stroke-width="5" stroke-linejoin="round" stroke-linecap="round"/><path d="M 64 57 h 80 a 0 0 0 0 1 0 0 v 14 a 0 0 0 0 1 0 0 h -80 a 0 0 0 0 1 0 0 v -14 a 0 0 0 0 1 0 0 Z" fill="#3A342E" stroke="#3A342E" stroke-width="5" stroke-linejoin="round" stroke-linecap="round"/><path d="M 59 55 h 10 a 4 4 0 0 1 4 4 v 10 a 4 4 0 0 1 -4 4 h -10 a 4 4 0 0 1 -4 -4 v -10 a 4 4 0 0 1 4 -4 Z" fill="#3A342E" stroke="#3A342E" stroke-width="5" stroke-linejoin="round" stroke-linecap="round"/><path d="M 57 57 h 14 a 0 0 0 0 1 0 0 v 14 a 0 0 0 0 1 0 0 h -14 a 0 0 0 0 1 0 0 v -14 a 0 0 0 0 1 0 0 Z" fill="#8A9199"/><path d="M 57 -16 h 14 a 0 0 0 0 1 0 0 v 80 a 0 0 0 0 1 0 0 h -14 a 0 0 0 0 1 0 0 v -80 a 0 0 0 0 1 0 0 Z" fill="#8A9199"/><path d="M 57 64 h 14 a 0 0 0 0 1 0 0 v 80 a 0 0 0 0 1 0 0 h -14 a 0 0 0 0 1 0 0 v -80 a 0 0 0 0 1 0 0 Z" fill="#8A9199"/><path d="M -16 57 h 80 a 0 0 0 0 1 0 0 v 14 a 0 0 0 0 1 0 0 h -80 a 0 0 0 0 1 0 0 v -14 a 0 0 0 0 1 0 0 Z" fill="#8A9199"/><path d="M 64 57 h 80 a 0 0 0 0 1 0 0 v 14 a 0 0 0 0 1 0 0 h -80 a 0 0 0 0 1 0 0 v -14 a 0 0 0 0 1 0 0 Z" fill="#8A9199"/><path d="M 60 0 h 8 a 0 0 0 0 1 0 0 v 64 a 0 0 0 0 1 0 0 h -8 a 0 0 0 0 1 0 0 v -64 a 0 0 0 0 1 0 0 Z" fill="#FFFFFF14"/><path d="M 60 64 h 8 a 0 0 0 0 1 0 0 v 64 a 0 0 0 0 1 0 0 h -8 a 0 0 0 0 1 0 0 v -64 a 0 0 0 0 1 0 0 Z" fill="#FFFFFF14"/><path d="M 0 60 h 64 a 0 0 0 0 1 0 0 v 8 a 0 0 0 0 1 0 0 h -64 a 0 0 0 0 1 0 0 v -8 a 0 0 0 0 1 0 0 Z" fill="#FFFFFF14"/><path d="M 64 60 h 64 a 0 0 0 0 1 0 0 v 8 a 0 0 0 0 1 0 0 h -64 a 0 0 0 0 1 0 0 v -8 a 0 0 0 0 1 0 0 Z" fill="#FFFFFF14"/><path d="M 59 55 h 10 a 4 4 0 0 1 4 4 v 10 a 4 4 0 0 1 -4 4 h -10 a 4 4 0 0 1 -4 -4 v -10 a 4 4 0 0 1 4 -4 Z" fill="#5F5E5A"/></g></svg>