<svg xmlns="http://www.w3.org/2000/svg" viewBox="0 0 512 512" width="512" height="512"><g transform="translate(0 0)"><path d="M 64 59 h 0 a 5 5 0 0 1 5 5 v 0 a 5 5 0 0 1 -5 5 h 0 a 5 5 0 0 1 -5 -5 v 0 a 5 5 0 0 1 5 -5 Z" fill="#3A342E" stroke="#3A342E" stroke-width="5" stroke-linejoin="round" stroke-linecap="round"/><path d="M 64 59 h 0 a 5 5 0 0 1 5 5 v 0 a 5 5 0 0 1 -5 5 h 0 a 5 5 0 0 1 -5 -5 v 0 a 5 5 0 0 1 5 -5 Z" fill="#B5D4F4" opacity="0.6"/><path d="M 59.5 58 h 9 a 1.5 1.5 0 0 1 1.5 1.5 v 9 a 1.5 1.5 0 0 1 -1.5 1.5 h -9 a 1.5 1.5 0 0 1 -1.5 -1.5 v -9 a 1.5 1.5 0 0 1 1.5 -1.5 Z" fill="#5F5E5A"/></g><g transform="translate(128 0)"><path d="M 59 59 h 10 a 0 0 0 0 1 0 0 v 10 a 0 0 0 0 1 0 0 h -10 a 0 0 0 0 1 0 0 v -10 a 0 0 0 0 1 0 0 Z" fill="#3A342E" stroke="#3A342E" stroke-width="5" stroke-linejoin="round" stroke-linecap="round"/><path d="M 59 -16 h 10 a 0 0 0 0 1 0 0 v 80 a 0 0 0 0 1 0 0 h -10 a 0 0 0 0 1 0 0 v -80 a 0 0 0 0 1 0 0 Z" fill="#3A342E" stroke="#3A342E" stroke-width="5" stroke-linejoin="round" stroke-linecap="round"/><path d="M 59 59 h 10 a 0 0 0 0 1 0 0 v 10 a 0 0 0 0 1 0 0 h -10 a 0 0 0 0 1 0 0 v -10 a 0 0 0 0 1 0 0 Z" fill="#B5D4F4" opacity="0.6"/><path d="M 59 -16 h 10 a 0 0 0 0 1 0 0 v 80 a 0 0 0 0 1 0 0 h -10 a 0 0 0 0 1 0 0 v -80 a 0 0 0 0 1 0 0 Z" fill="#B5D4F4" opacity="0.6"/><path d="M 59 20 h 10 a 1 1 0 0 1 1 1 v 2 a 1 1 0 0 1 -1 1 h -10 a 1 1 0 0 1 -1 -1 v -2 a 1 1 0 0 1 1 -1 Z" fill="#5F5E5A"/><path d="M 59.5 58 h 9 a 1.5 1.5 0 0 1 1.5 1.5 v 9 a 1.5 1.5 0 0 1 -1.5 1.5 h -9 a 1.5 1.5 0 0 1 -1.5 -1.5 v -9 a 1.5 1.5 0 0 1 1.5 -1.5 Z" fill="#5F5E5A"/></g><g transform="translate(256 0)"><path d="M 59 59 h 10 a 0 0 0 0 1 0 0 v 10 a 0 0 0 0 1 0 0 h -10 a 0 0 0 0 1 0 0 v -10 a 0 0 0 0 1 0 0 Z" fill="#3A342E" stroke="#3A342E" stroke-width="5" stroke-linejoin="round" stroke-linecap="round"/><path d="M 64 59 h 80 a 0 0 0 0 1 0 0 v 10 a 0 0 0 0 1 0 0 h -80 a 0 0 0 0 1 0 0 v -10 a 0 0 0 0 1 0 0 Z" fill="#3A342E" stroke="#3A342E" stroke-width="5" stroke-linejoin="round" stroke-linecap="round"/><path d="M 59 59 h 10 a 0 0 0 0 1 0 0 v 10 a 0 0 0 0 1 0 0 h -10 a 0 0 0 0 1 0 0 v -10 a 0 0 0 0 1 0 0 Z" fill="#B5D4F4" opacity="0.6"/><path d="M 64 59 h 80 a 0 0 0 0 1 0 0 v 10 a 0 0 0 0 1 0 0 h -80 a 0 0 0 0 1 0 0 v -10 a 0 0 0 0 1 0 0 Z" fill="#B5D4F4" opacity="0.6"/><path d="M 105 58 h 2 a 1 1 0 0 1 1 1 v 10 a 1 1 0 0 1 -1 1 h -2 a 1 1 0 0 1 -1 -1 v -10 a 1 1 0 0 1 1 -1 Z" fill="#5F5E5A"/><path d="M 59.5 58 h 9 a 1.5 1.5 0 0 1 1.5 1.5 v 9 a 1.5 1.5 0 0 1 -1.5 1.5 h -9 a 1.5 1.5 0 0 1 -1.5 -1.5 v -9 a 1.5 1.5 0 0 1 1.5 -1.5 Z" fill="#5F5E5A"/></g><g transform="translate(384 0)"><path d="M 59 59 h 10 a 0 0 0 0 1 0 0 v 10 a 0 0 0 0 1 0 0 h -10 a 0 0 0 0 1 0 0 v -10 a 0 0 0 0 1 0 0 Z" fill="#3A342E" stroke="#3A342E" stroke-width="5" stroke-linejoin="round" stroke-linecap="round"/><path d="M 59 -16 h 10 a 0 0 0 0 1 0 0 v 80 a 0 0 0 0 1 0 0 h -10 a 0 0 0 0 1 0 0 v -80 a 0 0 0 0 1 0 0 Z" fill="#3A342E" stroke="#3A342E" stroke-width="5" stroke-linejoin="round" stroke-linecap="round"/><path d="M 64 59 h 80 a 0 0 0 0 1 0 0 v 10 a 0 0 0 0 1 0 0 h -80 a 0 0 0 0 1 0 0 v -10 a 0 0 0 0 1 0 0 Z" fill="#3A342E" stroke="#3A342E" stroke-width="5" stroke-linejoin="round" stroke-linecap="round"/><path d="M 59 59 h 10 a 0 0 0 0 1 0 0 v 10 a 0 0 0 0 1 0 0 h -10 a 0 0 0 0 1 0 0 v -10 a 0 0 0 0 1 0 0 Z" fill="#B5D4F4" opacity="0.6"/><path d="M 59 -16 h 10 a 0 0 0 0 1 0 0 v 80 a 0 0 0 0 1 0 0 h -10 a 0 0 0 0 1 0 0 v -80 a 0 0 0 0 1 0 0 Z" fill="#B5D4F4" opacity="0.6"/><path d="M 64 59 h 80 a 0 0 0 0 1 0 0 v 10 a 0 0 0 0 1 0 0 h -80 a 0 0 0 0 1 0 0 v -10 a 0 0 0 0 1 0 0 Z" fill="#B5D4F4" opacity="0.6"/><path d="M 59 20 h 10 a 1 1 0 0 1 1 1 v 2 a 1 1 0 0 1 -1 1 h -10 a 1 1 0 0 1 -1 -1 v -2 a 1 1 0 0 1 1 -1 Z" fill="#5F5E5A"/><path d="M 105 58 h 2 a 1 1 0 0 1 1 1 v 10 a 1 1 0 0 1 -1 1 h -2 a 1 1 0 0 1 -1 -1 v -10 a 1 1 0 0 1 1 -1 Z" fill="#5F5E5A"/><path d="M 59.5 58 h 9 a 1.5 1.5 0 0 1 1.5 1.5 v 9 a 1.5 1.5 0 0 1 -1.5 1.5 h -9 a 1.5 1.5 0 0 1 -1.5 -1.5 v -9 a 1.5 1.5 0 0 1 1.5 -1.5 Z" fill="#5F5E5A"/></g><g transform="translate(0 128)"><path d="M 59 59 h 10 a 0 0 0 0 1 0 0 v 10 a 0 0 0 0 1 0 0 h -10 a 0 0 0 0 1 0 0 v -10 a 0 0 0 0 1 0 0 Z" fill="#3A342E" stroke="#3A342E" stroke-width="5" stroke-linejoin="round" stroke-linecap="round"/><path d="M 59 64 h 10 a 0 0 0 0 1 0 0 v 80 a 0 0 0 0 1 0 0 h -10 a 0 0 0 0 1 0 0 v -80 a 0 0 0 0 1 0 0 Z" fill="#3A342E" stroke="#3A342E" stroke-width="5" stroke-linejoin="round" stroke-linecap="round"/><path d="M 59 59 h 10 a 0 0 0 0 1 0 0 v 10 a 0 0 0 0 1 0 0 h -10 a 0 0 0 0 1 0 0 v -10 a 0 0 0 0 1 0 0 Z" fill="#B5D4F4" opacity="0.6"/><path d="M 59 64 h 10 a 0 0 0 0 1 0 0 v 80 a 0 0 0 0 1 0 0 h -10 a 0 0 0 0 1 0 0 v -80 a 0 0 0 0 1 0 0 Z" fill="#B5D4F4" opacity="0.6"/><path d="M 59 104 h 10 a 1 1 0 0 1 1 1 v 2 a 1 1 0 0 1 -1 1 h -10 a 1 1 0 0 1 -1 -1 v -2 a 1 1 0 0 1 1 -1 Z" fill="#5F5E5A"/><path d="M 59.5 58 h 9 a 1.5 1.5 0 0 1 1.5 1.5 v 9 a 1.5 1.5 0 0 1 -1.5 1.5 h -9 a 1.5 1.5 0 0 1 -1.5 -1.5 v -9 a 1.5 1.5 0 0 1 1.5 -1.5 Z" fill="#5F5E5A"/></g><g transform="translate(128 128)"><path d="M 59 59 h 10 a 0 0 0 0 1 0 0 v 10 a 0 0 0 0 1 0 0 h -10 a 0 0 0 0 1 0 0 v -10 a 0 0 0 0 1 0 0 Z" fill="#3A342E" stroke="#3A342E" stroke-width="5" stroke-linejoin="round" stroke-linecap="round"/><path d="M 59 -16 h 10 a 0 0 0 0 1 0 0 v 80 a 0 0 0 0 1 0 0 h -10 a 0 0 0 0 1 0 0 v -80 a 0 0 0 0 1 0 0 Z" fill="#3A342E" stroke="#3A342E" stroke-width="5" stroke-linejoin="round" stroke-linecap="round"/><path d="M 59 64 h 10 a 0 0 0 0 1 0 0 v 80 a 0 0 0 0 1 0 0 h -10 a 0 0 0 0 1 0 0 v -80 a 0 0 0 0 1 0 0 Z" fill="#3A342E" stroke="#3A342E" stroke-width="5" stroke-linejoin="round" stroke-linecap="round"/><path d="M 59 59 h 10 a 0 0 0 0 1 0 0 v 10 a 0 0 0 0 1 0 0 h -10 a 0 0 0 0 1 0 0 v -10 a 0 0 0 0 1 0 0 Z" fill="#B5D4F4" opacity="0.6"/><path d="M 59 -16 h 10 a 0 0 0 0 1 0 0 v 80 a 0 0 0 0 1 0 0 h -10 a 0 0 0 0 1 0 0 v -80 a 0 0 0 0 1 0 0 Z" fill="#B5D4F4" opacity="0.6"/><path d="M 59 64 h 10 a 0 0 0 0 1 0 0 v 80 a 0 0 0 0 1 0 0 h -10 a 0 0 0 0 1 0 0 v -80 a 0 0 0 0 1 0 0 Z" fill="#B5D4F4" opacity="0.6"/><path d="M 59 20 h 10 a 1 1 0 0 1 1 1 v 2 a 1 1 0 0 1 -1 1 h -10 a 1 1 0 0 1 -1 -1 v -2 a 1 1 0 0 1 1 -1 Z" fill="#5F5E5A"/><path d="M 59 104 h 10 a 1 1 0 0 1 1 1 v 2 a 1 1 0 0 1 -1 1 h -10 a 1 1 0 0 1 -1 -1 v -2 a 1 1 0 0 1 1 -1 Z" fill="#5F5E5A"/><path d="M 59.5 58 h 9 a 1.5 1.5 0 0 1 1.5 1.5 v 9 a 1.5 1.5 0 0 1 -1.5 1.5 h -9 a 1.5 1.5 0 0 1 -1.5 -1.5 v -9 a 1.5 1.5 0 0 1 1.5 -1.5 Z" fill="#5F5E5A"/></g><g transform="translate(256 128)"><path d="M 59 59 h 10 a 0 0 0 0 1 0 0 v 10 a 0 0 0 0 1 0 0 h -10 a 0 0 0 0 1 0 0 v -10 a 0 0 0 0 1 0 0 Z" fill="#3A342E" stroke="#3A342E" stroke-width="5" stroke-linejoin="round" stroke-linecap="round"/><path d="M 59 64 h 10 a 0 0 0 0 1 0 0 v 80 a 0 0 0 0 1 0 0 h -10 a 0 0 0 0 1 0 0 v -80 a 0 0 0 0 1 0 0 Z" fill="#3A342E" stroke="#3A342E" stroke-width="5" stroke-linejoin="round" stroke-linecap="round"/><path d="M 64 59 h 80 a 0 0 0 0 1 0 0 v 10 a 0 0 0 0 1 0 0 h -80 a 0 0 0 0 1 0 0 v -10 a 0 0 0 0 1 0 0 Z" fill="#3A342E" stroke="#3A342E" stroke-width="5" stroke-linejoin="round" stroke-linecap="round"/><path d="M 59 59 h 10 a 0 0 0 0 1 0 0 v 10 a 0 0 0 0 1 0 0 h -10 a 0 0 0 0 1 0 0 v -10 a 0 0 0 0 1 0 0 Z" fill="#B5D4F4" opacity="0.6"/><path d="M 59 64 h 10 a 0 0 0 0 1 0 0 v 80 a 0 0 0 0 1 0 0 h -10 a 0 0 0 0 1 0 0 v -80 a 0 0 0 0 1 0 0 Z" fill="#B5D4F4" opacity="0.6"/><path d="M 64 59 h 80 a 0 0 0 0 1 0 0 v 10 a 0 0 0 0 1 0 0 h -80 a 0 0 0 0 1 0 0 v -10 a 0 0 0 0 1 0 0 Z" fill="#B5D4F4" opacity="0.6"/><path d="M 59 104 h 10 a 1 1 0 0 1 1 1 v 2 a 1 1 0 0 1 -1 1 h -10 a 1 1 0 0 1 -1 -1 v -2 a 1 1 0 0 1 1 -1 Z" fill="#5F5E5A"/><path d="M 105 58 h 2 a 1 1 0 0 1 1 1 v 10 a 1 1 0 0 1 -1 1 h -2 a 1 1 0 0 1 -1 -1 v -10 a 1 1 0 0 1 1 -1 Z" fill="#5F5E5A"/><path d="M 59.5 58 h 9 a 1.5 1.5 0 0 1 1.5 1.5 v 9 a 1.5 1.5 0 0 1 -1.5 1.5 h -9 a 1.5 1.5 0 0 1 -1.5 -1.5 v -9 a 1.5 1.5 0 0 1 1.5 -1.5 Z" fill="#5F5E5A"/></g><g transform="translate(384 128)"><path d="M 59 59 h 10 a 0 0 0 0 1 0 0 v 10 a 0 0 0 0 1 0 0 h -10 a 0 0 0 0 1 0 0 v -10 a 0 0 0 0 1 0 0 Z" fill="#3A342E" stroke="#3A342E" stroke-width="5" stroke-linejoin="round" stroke-linecap="round"/><path d="M 59 -16 h 10 a 0 0 0 0 1 0 0 v 80 a 0 0 0 0 1 0 0 h -10 a 0 0 0 0 1 0 0 v -80 a 0 0 0 0 1 0 0 Z" fill="#3A342E" stroke="#3A342E" stroke-width="5" stroke-linejoin="round" stroke-linecap="round"/><path d="M 59 64 h 10 a 0 0 0 0 1 0 0 v 80 a 0 0 0 0 1 0 0 h -10 a 0 0 0 0 1 0 0 v -80 a 0 0 0 0 1 0 0 Z" fill="#3A342E" stroke="#3A342E" stroke-width="5" stroke-linejoin="round" stroke-linecap="round"/><path d="M 64 59 h 80 a 0 0 0 0 1 0 0 v 10 a 0 0 0 0 1 0 0 h -80 a 0 0 0 0 1 0 0 v -10 a 0 0 0 0 1 0 0 Z" fill="#3A342E" stroke="#3A342E" stroke-width="5" stroke-linejoin="round" stroke-linecap="round"/><path d="M 59 59 h 10 a 0 0 0 0 1 0 0 v 10 a 0 0 0 0 1 0 0 h -10 a 0 0 0 0 1 0 0 v -10 a 0 0 0 0 1 0 0 Z" fill="#B5D4F4" opacity="0.6"/><path d="M 59 -16 h 10 a 0 0 0 0 1 0 0 v 80 a 0 0 0 0 1 0 0 h -10 a 0 0 0 0 1 0 0 v -80 a 0 0 0 0 1 0 0 Z" fill="#B5D4F4" opacity="0.6"/><path d="M 59 64 h 10 a 0 0 0 0 1 0 0 v 80 a 0 0 0 0 1 0 0 h -10 a 0 0 0 0 1 0 0 v -80 a 0 0 0 0 1 0 0 Z" fill="#B5D4F4" opacity="0.6"/><path d="M 64 59 h 80 a 0 0 0 0 1 0 0 v 10 a 0 0 0 0 1 0 0 h -80 a 0 0 0 0 1 0 0 v -10 a 0 0 0 0 1 0 0 Z" fill="#B5D4F4" opacity="0.6"/><path d="M 59 20 h 10 a 1 1 0 0 1 1 1 v 2 a 1 1 0 0 1 -1 1 h -10 a 1 1 0 0 1 -1 -1 v -2 a 1 1 0 0 1 1 -1 Z" fill="#5F5E5A"/><path d="M 59 104 h 10 a 1 1 0 0 1 1 1 v 2 a 1 1 0 0 1 -1 1 h -10 a 1 1 0 0 1 -1 -1 v -2 a 1 1 0 0 1 1 -1 Z" fill="#5F5E5A"/><path d="M 105 58 h 2 a 1 1 0 0 1 1 1 v 10 a 1 1 0 0 1 -1 1 h -2 a 1 1 0 0 1 -1 -1 v -10 a 1 1 0 0 1 1 -1 Z" fill="#5F5E5A"/><path d="M 59.5 58 h 9 a 1.5 1.5 0 0 1 1.5 1.5 v 9 a 1.5 1.5 0 0 1 -1.5 1.5 h -9 a 1.5 1.5 0 0 1 -1.5 -1.5 v -9 a 1.5 1.5 0 0 1 1.5 -1.5 Z" fill="#5F5E5A"/></g><g transform="translate(0 256)"><path d="M 59 59 h 10 a 0 0 0 0 1 0 0 v 10 a 0 0 0 0 1 0 0 h -10 a 0 0 0 0 1 0 0 v -10 a 0 0 0 0 1 0 0 Z" fill="#3A342E" stroke="#3A342E" stroke-width="5" stroke-linejoin="round" stroke-linecap="round"/><path d="M -16 59 h 80 a 0 0 0 0 1 0 0 v 10 a 0 0 0 0 1 0 0 h -80 a 0 0 0 0 1 0 0 v -10 a 0 0 0 0 1 0 0 Z" fill="#3A342E" stroke="#3A342E" stroke-width="5" stroke-linejoin="round" stroke-linecap="round"/><path d="M 59 59 h 10 a 0 0 0 0 1 0 0 v 10 a 0 0 0 0 1 0 0 h -10 a 0 0 0 0 1 0 0 v -10 a 0 0 0 0 1 0 0 Z" fill="#B5D4F4" opacity="0.6"/><path d="M -16 59 h 80 a 0 0 0 0 1 0 0 v 10 a 0 0 0 0 1 0 0 h -80 a 0 0 0 0 1 0 0 v -10 a 0 0 0 0 1 0 0 Z" fill="#B5D4F4" opacity="0.6"/><path d="M 21 58 h 2 a 1 1 0 0 1 1 1 v 10 a 1 1 0 0 1 -1 1 h -2 a 1 1 0 0 1 -1 -1 v -10 a 1 1 0 0 1 1 -1 Z" fill="#5F5E5A"/><path d="M 59.5 58 h 9 a 1.5 1.5 0 0 1 1.5 1.5 v 9 a 1.5 1.5 0 0 1 -1.5 1.5 h -9 a 1.5 1.5 0 0 1 -1.5 -1.5 v -9 a 1.5 1.5 0 0 1 1.5 -1.5 Z" fill="#5F5E5A"/></g><g transform="translate(128 256)"><path d="M 59 59 h 10 a 0 0 0 0 1 0 0 v 10 a 0 0 0 0 1 0 0 h -10 a 0 0 0 0 1 0 0 v -10 a 0 0 0 0 1 0 0 Z" fill="#3A342E" stroke="#3A342E" stroke-width="5" stroke-linejoin="round" stroke-linecap="round"/><path d="M 59 -16 h 10 a 0 0 0 0 1 0 0 v 80 a 0 0 0 0 1 0 0 h -10 a 0 0 0 0 1 0 0 v -80 a 0 0 0 0 1 0 0 Z" fill="#3A342E" stroke="#3A342E" stroke-width="5" stroke-linejoin="round" stroke-linecap="round"/><path d="M -16 59 h 80 a 0 0 0 0 1 0 0 v 10 a 0 0 0 0 1 0 0 h -80 a 0 0 0 0 1 0 0 v -10 a 0 0 0 0 1 0 0 Z" fill="#3A342E" stroke="#3A342E" stroke-width="5" stroke-linejoin="round" stroke-linecap="round"/><path d="M 59 59 h 10 a 0 0 0 0 1 0 0 v 10 a 0 0 0 0 1 0 0 h -10 a 0 0 0 0 1 0 0 v -10 a 0 0 0 0 1 0 0 Z" fill="#B5D4F4" opacity="0.6"/><path d="M 59 -16 h 10 a 0 0 0 0 1 0 0 v 80 a 0 0 0 0 1 0 0 h -10 a 0 0 0 0 1 0 0 v -80 a 0 0 0 0 1 0 0 Z" fill="#B5D4F4" opacity="0.6"/><path d="M -16 59 h 80 a 0 0 0 0 1 0 0 v 10 a 0 0 0 0 1 0 0 h -80 a 0 0 0 0 1 0 0 v -10 a 0 0 0 0 1 0 0 Z" fill="#B5D4F4" opacity="0.6"/><path d="M 59 20 h 10 a 1 1 0 0 1 1 1 v 2 a 1 1 0 0 1 -1 1 h -10 a 1 1 0 0 1 -1 -1 v -2 a 1 1 0 0 1 1 -1 Z" fill="#5F5E5A"/><path d="M 21 58 h 2 a 1 1 0 0 1 1 1 v 10 a 1 1 0 0 1 -1 1 h -2 a 1 1 0 0 1 -1 -1 v -10 a 1 1 0 0 1 1 -1 Z" fill="#5F5E5A"/><path d="M 59.5 58 h 9 a 1.5 1.5 0 0 1 1.5 1.5 v 9 a 1.5 1.5 0 0 1 -1.5 1.5 h -9 a 1.5 1.5 0 0 1 -1.5 -1.5 v -9 a 1.5 1.5 0 0 1 1.5 -1.5 Z" fill="#5F5E5A"/></g><g transform="translate(256 256)"><path d="M 59 59 h 10 a 0 0 0 0 1 0 0 v 10 a 0 0 0 0 1 0 0 h -10 a 0 0 0 0 1 0 0 v -10 a 0 0 0 0 1 0 0 Z" fill="#3A342E" stroke="#3A342E" stroke-width="5" stroke-linejoin="round" stroke-linecap="round"/><path d="M -16 59 h 80 a 0 0 0 0 1 0 0 v 10 a 0 0 0 0 1 0 0 h -80 a 0 0 0 0 1 0 0 v -10 a 0 0 0 0 1 0 0 Z" fill="#3A342E" stroke="#3A342E" stroke-width="5" stroke-linejoin="round" stroke-linecap="round"/><path d="M 64 59 h 80 a 0 0 0 0 1 0 0 v 10 a 0 0 0 0 1 0 0 h -80 a 0 0 0 0 1 0 0 v -10 a 0 0 0 0 1 0 0 Z" fill="#3A342E" stroke="#3A342E" stroke-width="5" stroke-linejoin="round" stroke-linecap="round"/><path d="M 59 59 h 10 a 0 0 0 0 1 0 0 v 10 a 0 0 0 0 1 0 0 h -10 a 0 0 0 0 1 0 0 v -10 a 0 0 0 0 1 0 0 Z" fill="#B5D4F4" opacity="0.6"/><path d="M -16 59 h 80 a 0 0 0 0 1 0 0 v 10 a 0 0 0 0 1 0 0 h -80 a 0 0 0 0 1 0 0 v -10 a 0 0 0 0 1 0 0 Z" fill="#B5D4F4" opacity="0.6"/><path d="M 64 59 h 80 a 0 0 0 0 1 0 0 v 10 a 0 0 0 0 1 0 0 h -80 a 0 0 0 0 1 0 0 v -10 a 0 0 0 0 1 0 0 Z" fill="#B5D4F4" opacity="0.6"/><path d="M 21 58 h 2 a 1 1 0 0 1 1 1 v 10 a 1 1 0 0 1 -1 1 h -2 a 1 1 0 0 1 -1 -1 v -10 a 1 1 0 0 1 1 -1 Z" fill="#5F5E5A"/><path d="M 105 58 h 2 a 1 1 0 0 1 1 1 v 10 a 1 1 0 0 1 -1 1 h -2 a 1 1 0 0 1 -1 -1 v -10 a 1 1 0 0 1 1 -1 Z" fill="#5F5E5A"/><path d="M 59.5 58 h 9 a 1.5 1.5 0 0 1 1.5 1.5 v 9 a 1.5 1.5 0 0 1 -1.5 1.5 h -9 a 1.5 1.5 0 0 1 -1.5 -1.5 v -9 a 1.5 1.5 0 0 1 1.5 -1.5 Z" fill="#5F5E5A"/></g><g transform="translate(384 256)"><path d="M 59 59 h 10 a 0 0 0 0 1 0 0 v 10 a 0 0 0 0 1 0 0 h -10 a 0 0 0 0 1 0 0 v -10 a 0 0 0 0 1 0 0 Z" fill="#3A342E" stroke="#3A342E" stroke-width="5" stroke-linejoin="round" stroke-linecap="round"/><path d="M 59 -16 h 10 a 0 0 0 0 1 0 0 v 80 a 0 0 0 0 1 0 0 h -10 a 0 0 0 0 1 0 0 v -80 a 0 0 0 0 1 0 0 Z" fill="#3A342E" stroke="#3A342E" stroke-width="5" stroke-linejoin="round" stroke-linecap="round"/><path d="M -16 59 h 80 a 0 0 0 0 1 0 0 v 10 a 0 0 0 0 1 0 0 h -80 a 0 0 0 0 1 0 0 v -10 a 0 0 0 0 1 0 0 Z" fill="#3A342E" stroke="#3A342E" stroke-width="5" stroke-linejoin="round" stroke-linecap="round"/><path d="M 64 59 h 80 a 0 0 0 0 1 0 0 v 10 a 0 0 0 0 1 0 0 h -80 a 0 0 0 0 1 0 0 v -10 a 0 0 0 0 1 0 0 Z" fill="#3A342E" stroke="#3A342E" stroke-width="5" stroke-linejoin="round" stroke-linecap="round"/><path d="M 59 59 h 10 a 0 0 0 0 1 0 0 v 10 a 0 0 0 0 1 0 0 h -10 a 0 0 0 0 1 0 0 v -10 a 0 0 0 0 1 0 0 Z" fill="#B5D4F4" opacity="0.6"/><path d="M 59 -16 h 10 a 0 0 0 0 1 0 0 v 80 a 0 0 0 0 1 0 0 h -10 a 0 0 0 0 1 0 0 v -80 a 0 0 0 0 1 0 0 Z" fill="#B5D4F4" opacity="0.6"/><path d="M -16 59 h 80 a 0 0 0 0 1 0 0 v 10 a 0 0 0 0 1 0 0 h -80 a 0 0 0 0 1 0 0 v -10 a 0 0 0 0 1 0 0 Z" fill="#B5D4F4" opacity="0.6"/><path d="M 64 59 h 80 a 0 0 0 0 1 0 0 v 10 a 0 0 0 0 1 0 0 h -80 a 0 0 0 0 1 0 0 v -10 a 0 0 0 0 1 0 0 Z" fill="#B5D4F4" opacity="0.6"/><path d="M 59 20 h 10 a 1 1 0 0 1 1 1 v 2 a 1 1 0 0 1 -1 1 h -10 a 1 1 0 0 1 -1 -1 v -2 a 1 1 0 0 1 1 -1 Z" fill="#5F5E5A"/><path d="M 21 58 h 2 a 1 1 0 0 1 1 1 v 10 a 1 1 0 0 1 -1 1 h -2 a 1 1 0 0 1 -1 -1 v -10 a 1 1 0 0 1 1 -1 Z" fill="#5F5E5A"/><path d="M 105 58 h 2 a 1 1 0 0 1 1 1 v 10 a 1 1 0 0 1 -1 1 h -2 a 1 1 0 0 1 -1 -1 v -10 a 1 1 0 0 1 1 -1 Z" fill="#5F5E5A"/><path d="M 59.5 58 h 9 a 1.5 1.5 0 0 1 1.5 1.5 v 9 a 1.5 1.5 0 0 1 -1.5 1.5 h -9 a 1.5 1.5 0 0 1 -1.5 -1.5 v -9 a 1.5 1.5 0 0 1 1.5 -1.5 Z" fill="#5F5E5A"/></g><g transform="translate(0 384)"><path d="M 59 59 h 10 a 0 0 0 0 1 0 0 v 10 a 0 0 0 0 1 0 0 h -10 a 0 0 0 0 1 0 0 v -10 a 0 0 0 0 1 0 0 Z" fill="#3A342E" stroke="#3A342E" stroke-width="5" stroke-linejoin="round" stroke-linecap="round"/><path d="M 59 64 h 10 a 0 0 0 0 1 0 0 v 80 a 0 0 0 0 1 0 0 h -10 a 0 0 0 0 1 0 0 v -80 a 0 0 0 0 1 0 0 Z" fill="#3A342E" stroke="#3A342E" stroke-width="5" stroke-linejoin="round" stroke-linecap="round"/><path d="M -16 59 h 80 a 0 0 0 0 1 0 0 v 10 a 0 0 0 0 1 0 0 h -80 a 0 0 0 0 1 0 0 v -10 a 0 0 0 0 1 0 0 Z" fill="#3A342E" stroke="#3A342E" stroke-width="5" stroke-linejoin="round" stroke-linecap="round"/><path d="M 59 59 h 10 a 0 0 0 0 1 0 0 v 10 a 0 0 0 0 1 0 0 h -10 a 0 0 0 0 1 0 0 v -10 a 0 0 0 0 1 0 0 Z" fill="#B5D4F4" opacity="0.6"/><path d="M 59 64 h 10 a 0 0 0 0 1 0 0 v 80 a 0 0 0 0 1 0 0 h -10 a 0 0 0 0 1 0 0 v -80 a 0 0 0 0 1 0 0 Z" fill="#B5D4F4" opacity="0.6"/><path d="M -16 59 h 80 a 0 0 0 0 1 0 0 v 10 a 0 0 0 0 1 0 0 h -80 a 0 0 0 0 1 0 0 v -10 a 0 0 0 0 1 0 0 Z" fill="#B5D4F4" opacity="0.6"/><path d="M 21 58 h 2 a 1 1 0 0 1 1 1 v 10 a 1 1 0 0 1 -1 1 h -2 a 1 1 0 0 1 -1 -1 v -10 a 1 1 0 0 1 1 -1 Z" fill="#5F5E5A"/><path d="M 59 104 h 10 a 1 1 0 0 1 1 1 v 2 a 1 1 0 0 1 -1 1 h -10 a 1 1 0 0 1 -1 -1 v -2 a 1 1 0 0 1 1 -1 Z" fill="#5F5E5A"/><path d="M 59.5 58 h 9 a 1.5 1.5 0 0 1 1.5 1.5 v 9 a 1.5 1.5 0 0 1 -1.5 1.5 h -9 a 1.5 1.5 0 0 1 -1.5 -1.5 v -9 a 1.5 1.5 0 0 1 1.5 -1.5 Z" fill="#5F5E5A"/></g><g transform="translate(128 384)"><path d="M 59 59 h 10 a 0 0 0 0 1 0 0 v 10 a 0 0 0 0 1 0 0 h -10 a 0 0 0 0 1 0 0 v -10 a 0 0 0 0 1 0 0 Z" fill="#3A342E" stroke="#3A342E" stroke-width="5" stroke-linejoin="round" stroke-linecap="round"/><path d="M 59 -16 h 10 a 0 0 0 0 1 0 0 v 80 a 0 0 0 0 1 0 0 h -10 a 0 0 0 0 1 0 0 v -80 a 0 0 0 0 1 0 0 Z" fill="#3A342E" stroke="#3A342E" stroke-width="5" stroke-linejoin="round" stroke-linecap="round"/><path d="M 59 64 h 10 a 0 0 0 0 1 0 0 v 80 a 0 0 0 0 1 0 0 h -10 a 0 0 0 0 1 0 0 v -80 a 0 0 0 0 1 0 0 Z" fill="#3A342E" stroke="#3A342E" stroke-width="5" stroke-linejoin="round" stroke-linecap="round"/><path d="M -16 59 h 80 a 0 0 0 0 1 0 0 v 10 a 0 0 0 0 1 0 0 h -80 a 0 0 0 0 1 0 0 v -10 a 0 0 0 0 1 0 0 Z" fill="#3A342E" stroke="#3A342E" stroke-width="5" stroke-linejoin="round" stroke-linecap="round"/><path d="M 59 59 h 10 a 0 0 0 0 1 0 0 v 10 a 0 0 0 0 1 0 0 h -10 a 0 0 0 0 1 0 0 v -10 a 0 0 0 0 1 0 0 Z" fill="#B5D4F4" opacity="0.6"/><path d="M 59 -16 h 10 a 0 0 0 0 1 0 0 v 80 a 0 0 0 0 1 0 0 h -10 a 0 0 0 0 1 0 0 v -80 a 0 0 0 0 1 0 0 Z" fill="#B5D4F4" opacity="0.6"/><path d="M 59 64 h 10 a 0 0 0 0 1 0 0 v 80 a 0 0 0 0 1 0 0 h -10 a 0 0 0 0 1 0 0 v -80 a 0 0 0 0 1 0 0 Z" fill="#B5D4F4" opacity="0.6"/><path d="M -16 59 h 80 a 0 0 0 0 1 0 0 v 10 a 0 0 0 0 1 0 0 h -80 a 0 0 0 0 1 0 0 v -10 a 0 0 0 0 1 0 0 Z" fill="#B5D4F4" opacity="0.6"/><path d="M 59 20 h 10 a 1 1 0 0 1 1 1 v 2 a 1 1 0 0 1 -1 1 h -10 a 1 1 0 0 1 -1 -1 v -2 a 1 1 0 0 1 1 -1 Z" fill="#5F5E5A"/><path d="M 21 58 h 2 a 1 1 0 0 1 1 1 v 10 a 1 1 0 0 1 -1 1 h -2 a 1 1 0 0 1 -1 -1 v -10 a 1 1 0 0 1 1 -1 Z" fill="#5F5E5A"/><path d="M 59 104 h 10 a 1 1 0 0 1 1 1 v 2 a 1 1 0 0 1 -1 1 h -10 a 1 1 0 0 1 -1 -1 v -2 a 1 1 0 0 1 1 -1 Z" fill="#5F5E5A"/><path d="M 59.5 58 h 9 a 1.5 1.5 0 0 1 1.5 1.5 v 9 a 1.5 1.5 0 0 1 -1.5 1.5 h -9 a 1.5 1.5 0 0 1 -1.5 -1.5 v -9 a 1.5 1.5 0 0 1 1.5 -1.5 Z" fill="#5F5E5A"/></g><g transform="translate(256 384)"><path d="M 59 59 h 10 a 0 0 0 0 1 0 0 v 10 a 0 0 0 0 1 0 0 h -10 a 0 0 0 0 1 0 0 v -10 a 0 0 0 0 1 0 0 Z" fill="#3A342E" stroke="#3A342E" stroke-width="5" stroke-linejoin="round" stroke-linecap="round"/><path d="M 59 64 h 10 a 0 0 0 0 1 0 0 v 80 a 0 0 0 0 1 0 0 h -10 a 0 0 0 0 1 0 0 v -80 a 0 0 0 0 1 0 0 Z" fill="#3A342E" stroke="#3A342E" stroke-width="5" stroke-linejoin="round" stroke-linecap="round"/><path d="M -16 59 h 80 a 0 0 0 0 1 0 0 v 10 a 0 0 0 0 1 0 0 h -80 a 0 0 0 0 1 0 0 v -10 a 0 0 0 0 1 0 0 Z" fill="#3A342E" stroke="#3A342E" stroke-width="5" stroke-linejoin="round" stroke-linecap="round"/><path d="M 64 59 h 80 a 0 0 0 0 1 0 0 v 10 a 0 0 0 0 1 0 0 h -80 a 0 0 0 0 1 0 0 v -10 a 0 0 0 0 1 0 0 Z" fill="#3A342E" stroke="#3A342E" stroke-width="5" stroke-linejoin="round" stroke-linecap="round"/><path d="M 59 59 h 10 a 0 0 0 0 1 0 0 v 10 a 0 0 0 0 1 0 0 h -10 a 0 0 0 0 1 0 0 v -10 a 0 0 0 0 1 0 0 Z" fill="#B5D4F4" opacity="0.6"/><path d="M 59 64 h 10 a 0 0 0 0 1 0 0 v 80 a 0 0 0 0 1 0 0 h -10 a 0 0 0 0 1 0 0 v -80 a 0 0 0 0 1 0 0 Z" fill="#B5D4F4" opacity="0.6"/><path d="M -16 59 h 80 a 0 0 0 0 1 0 0 v 10 a 0 0 0 0 1 0 0 h -80 a 0 0 0 0 1 0 0 v -10 a 0 0 0 0 1 0 0 Z" fill="#B5D4F4" opacity="0.6"/><path d="M 64 59 h 80 a 0 0 0 0 1 0 0 v 10 a 0 0 0 0 1 0 0 h -80 a 0 0 0 0 1 0 0 v -10 a 0 0 0 0 1 0 0 Z" fill="#B5D4F4" opacity="0.6"/><path d="M 21 58 h 2 a 1 1 0 0 1 1 1 v 10 a 1 1 0 0 1 -1 1 h -2 a 1 1 0 0 1 -1 -1 v -10 a 1 1 0 0 1 1 -1 Z" fill="#5F5E5A"/><path d="M 59 104 h 10 a 1 1 0 0 1 1 1 v 2 a 1 1 0 0 1 -1 1 h -10 a 1 1 0 0 1 -1 -1 v -2 a 1 1 0 0 1 1 -1 Z" fill="#5F5E5A"/><path d="M 105 58 h 2 a 1 1 0 0 1 1 1 v 10 a 1 1 0 0 1 -1 1 h -2 a 1 1 0 0 1 -1 -1 v -10 a 1 1 0 0 1 1 -1 Z" fill="#5F5E5A"/><path d="M 59.5 58 h 9 a 1.5 1.5 0 0 1 1.5 1.5 v 9 a 1.5 1.5 0 0 1 -1.5 1.5 h -9 a 1.5 1.5 0 0 1 -1.5 -1.5 v -9 a 1.5 1.5 0 0 1 1.5 -1.5 Z" fill="#5F5E5A"/></g><g transform="translate(384 384)"><path d="M 59 59 h 10 a 0 0 0 0 1 0 0 v 10 a 0 0 0 0 1 0 0 h -10 a 0 0 0 0 1 0 0 v -10 a 0 0 0 0 1 0 0 Z" fill="#3A342E" stroke="#3A342E" stroke-width="5" stroke-linejoin="round" stroke-linecap="round"/><path d="M 59 -16 h 10 a 0 0 0 0 1 0 0 v 80 a 0 0 0 0 1 0 0 h -10 a 0 0 0 0 1 0 0 v -80 a 0 0 0 0 1 0 0 Z" fill="#3A342E" stroke="#3A342E" stroke-width="5" stroke-linejoin="round" stroke-linecap="round"/><path d="M 59 64 h 10 a 0 0 0 0 1 0 0 v 80 a 0 0 0 0 1 0 0 h -10 a 0 0 0 0 1 0 0 v -80 a 0 0 0 0 1 0 0 Z" fill="#3A342E" stroke="#3A342E" stroke-width="5" stroke-linejoin="round" stroke-linecap="round"/><path d="M -16 59 h 80 a 0 0 0 0 1 0 0 v 10 a 0 0 0 0 1 0 0 h -80 a 0 0 0 0 1 0 0 v -10 a 0 0 0 0 1 0 0 Z" fill="#3A342E" stroke="#3A342E" stroke-width="5" stroke-linejoin="round" stroke-linecap="round"/><path d="M 64 59 h 80 a 0 0 0 0 1 0 0 v 10 a 0 0 0 0 1 0 0 h -80 a 0 0 0 0 1 0 0 v -10 a 0 0 0 0 1 0 0 Z" fill="#3A342E" stroke="#3A342E" stroke-width="5" stroke-linejoin="round" stroke-linecap="round"/><path d="M 59 59 h 10 a 0 0 0 0 1 0 0 v 10 a 0 0 0 0 1 0 0 h -10 a 0 0 0 0 1 0 0 v -10 a 0 0 0 0 1 0 0 Z" fill="#B5D4F4" opacity="0.6"/><path d="M 59 -16 h 10 a 0 0 0 0 1 0 0 v 80 a 0 0 0 0 1 0 0 h -10 a 0 0 0 0 1 0 0 v -80 a 0 0 0 0 1 0 0 Z" fill="#B5D4F4" opacity="0.6"/><path d="M 59 64 h 10 a 0 0 0 0 1 0 0 v 80 a 0 0 0 0 1 0 0 h -10 a 0 0 0 0 1 0 0 v -80 a 0 0 0 0 1 0 0 Z" fill="#B5D4F4" opacity="0.6"/><path d="M -16 59 h 80 a 0 0 0 0 1 0 0 v 10 a 0 0 0 0 1 0 0 h -80 a 0 0 0 0 1 0 0 v -10 a 0 0 0 0 1 0 0 Z" fill="#B5D4F4" opacity="0.6"/><path d="M 64 59 h 80 a 0 0 0 0 1 0 0 v 10 a 0 0 0 0 1 0 0 h -80 a 0 0 0 0 1 0 0 v -10 a 0 0 0 0 1 0 0 Z" fill="#B5D4F4" opacity="0.6"/><path d="M 59 20 h 10 a 1 1 0 0 1 1 1 v 2 a 1 1 0 0 1 -1 1 h -10 a 1 1 0 0 1 -1 -1 v -2 a 1 1 0 0 1 1 -1 Z" fill="#5F5E5A"/><path d="M 21 58 h 2 a 1 1 0 0 1 1 1 v 10 a 1 1 0 0 1 -1 1 h -2 a 1 1 0 0 1 -1 -1 v -10 a 1 1 0 0 1 1 -1 Z" fill="#5F5E5A"/><path d="M 59 104 h 10 a 1 1 0 0 1 1 1 v 2 a 1 1 0 0 1 -1 1 h -10 a 1 1 0 0 1 -1 -1 v -2 a 1 1 0 0 1 1 -1 Z" fill="#5F5E5A"/><path d="M 105 58 h 2 a 1 1 0 0 1 1 1 v 10 a 1 1 0 0 1 -1 1 h -2 a 1 1 0 0 1 -1 -1 v -10 a 1 1 0 0 1 1 -1 Z" fill="#5F5E5A"/><path d="M 59.5 58 h 9 a 1.5 1.5 0 0 1 1.5 1.5 v 9 a 1.5 1.5 0 0 1 -1.5 1.5 h -9 a 1.5 1.5 0 0 1 -1.5 -1.5 v -9 a 1.5 1.5 0 0 1 1.5 -1.5 Z" fill="#5F5E5A"/></g></svg>