<svg xmlns="http://www.w3.org/2000/svg" viewBox="0 0 128 128" width="128" height="128"><path d="M 27.5 36 a 9 9 0 1 0 18 0 a 9 9 0 1 0 -18 0 Z" fill="#3A342E" stroke="#3A342E" stroke-width="5" stroke-linejoin="round" stroke-linecap="round"/><path d="M 27 33 A 11 11 0 0 1 46 33" fill="none" stroke="#3A342E" stroke-width="9" stroke-linejoin="round" stroke-linecap="round"/><path d="M 55 36 a 9 9 0 1 0 18 0 a 9 9 0 1 0 -18 0 Z" fill="#3A342E" stroke="#3A342E" stroke-width="5" stroke-linejoin="round" stroke-linecap="round"/><path d="M 54.5 33 A 11 11 0 0 1 73.5 33" fill="none" stroke="#3A342E" stroke-width="9" stroke-linejoin="round" stroke-linecap="round"/><path d="M 82.5 36 a 9 9 0 1 0 18 0 a 9 9 0 1 0 -18 0 Z" fill="#3A342E" stroke="#3A342E" stroke-width="5" stroke-linejoin="round" stroke-linecap="round"/><path d="M 82 33 A 11 11 0 0 1 101 33" fill="none" stroke="#3A342E" stroke-width="9" stroke-linejoin="round" stroke-linecap="round"/><path d="M 27.5 92 a 9 9 0 1 0 18 0 a 9 9 0 1 0 -18 0 Z" fill="#3A342E" stroke="#3A342E" stroke-width="5" stroke-linejoin="round" stroke-linecap="round"/><path d="M 27 95 A 11 11 0 0 0 46 95" fill="none" stroke="#3A342E" stroke-width="9" stroke-linejoin="round" stroke-linecap="round"/><path d="M 55 92 a 9 9 0 1 0 18 0 a 9 9 0 1 0 -18 0 Z" fill="#3A342E" stroke="#3A342E" stroke-width="5" stroke-linejoin="round" stroke-linecap="round"/><path d="M 54.5 95 A 11 11 0 0 0 73.5 95" fill="none" stroke="#3A342E" stroke-width="9" stroke-linejoin="round" stroke-linecap="round"/><path d="M 82.5 92 a 9 9 0 1 0 18 0 a 9 9 0 1 0 -18 0 Z" fill="#3A342E" stroke="#3A342E" stroke-width="5" stroke-linejoin="round" stroke-linecap="round"/><path d="M 82 95 A 11 11 0 0 0 101 95" fill="none" stroke="#3A342E" stroke-width="9" stroke-linejoin="round" stroke-linecap="round"/><path d="M 21 42 h 86 a 12 12 0 0 1 12 12 v 20 a 12 12 0 0 1 -12 12 h -86 a 12 12 0 0 1 -12 -12 v -20 a 12 12 0 0 1 12 -12 Z" fill="#3A342E" stroke="#3A342E" stroke-width="5" stroke-linejoin="round" stroke-linecap="round"/><path d="M 27.5 36 a 9 9 0 1 0 18 0 a 9 9 0 1 0 -18 0 Z" fill="#444441"/><path d="M 27 33 A 11 11 0 0 1 46 33" fill="none" stroke="#444441" stroke-width="4" stroke-linecap="round" stroke-linejoin="round"/><path d="M 55 36 a 9 9 0 1 0 18 0 a 9 9 0 1 0 -18 0 Z" fill="#444441"/><path d="M 54.5 33 A 11 11 0 0 1 73.5 33" fill="none" stroke="#444441" stroke-width="4" stroke-linecap="round" stroke-linejoin="round"/><path d="M 82.5 36 a 9 9 0 1 0 18 0 a 9 9 0 1 0 -18 0 Z" fill="#444441"/><path d="M 82 33 A 11 11 0 0 1 101 33" fill="none" stroke="#444441" stroke-width="4" stroke-linecap="round" stroke-linejoin="round"/><path d="M 27.5 92 a 9 9 0 1 0 18 0 a 9 9 0 1 0 -18 0 Z" fill="#444441"/><path d="M 27 95 A 11 11 0 0 0 46 95" fill="none" stroke="#444441" stroke-width="4" stroke-linecap="round" stroke-linejoin="round"/><path d="M 55 92 a 9 9 0 1 0 18 0 a 9 9 0 1 0 -18 0 Z" fill="#444441"/><path d="M 54.5 95 A 11 11 0 0 0 73.5 95" fill="none" stroke="#444441" stroke-width="4" stroke-linecap="round" stroke-linejoin="round"/><path d="M 82.5 92 a 9 9 0 1 0 18 0 a 9 9 0 1 0 -18 0 Z" fill="#444441"/><path d="M 82 95 A 11 11 0 0 0 101 95" fill="none" stroke="#444441" stroke-width="4" stroke-linecap="round" stroke-linejoin="round"/><path d="M 21 42 h 86 a 12 12 0 0 1 12 12 v 20 a 12 12 0 0 1 -12 12 h -86 a 12 12 0 0 1 -12 -12 v -20 a 12 12 0 0 1 12 -12 Z" fill="#6E4A2A"/><path d="M 25 50 h 78 a 8 8 0 0 1 8 8 v 12 a 8 8 0 0 1 -8 8 h -78 a 8 8 0 0 1 -8 -8 v -12 a 8 8 0 0 1 8 -8 Z" fill="#00000010"/></svg>