<svg xmlns="http://www.w3.org/2000/svg" viewBox="0 0 128 128" width="128" height="128"><path d="M 20 16 h 6 a 4 4 0 0 1 4 4 v 6 a 4 4 0 0 1 -4 4 h -6 a 4 4 0 0 1 -4 -4 v -6 a 4 4 0 0 1 4 -4 Z" fill="#3A342E" stroke="#3A342E" stroke-width="5" stroke-linejoin="round" stroke-linecap="round"/><path d="M 102 16 h 6 a 4 4 0 0 1 4 4 v 6 a 4 4 0 0 1 -4 4 h -6 a 4 4 0 0 1 -4 -4 v -6 a 4 4 0 0 1 4 -4 Z" fill="#3A342E" stroke="#3A342E" stroke-width="5" stroke-linejoin="round" stroke-linecap="round"/><path d="M 20 98 h 6 a 4 4 0 0 1 4 4 v 6 a 4 4 0 0 1 -4 4 h -6 a 4 4 0 0 1 -4 -4 v -6 a 4 4 0 0 1 4 -4 Z" fill="#3A342E" stroke="#3A342E" stroke-width="5" stroke-linejoin="round" stroke-linecap="round"/><path d="M 102 98 h 6 a 4 4 0 0 1 4 4 v 6 a 4 4 0 0 1 -4 4 h -6 a 4 4 0 0 1 -4 -4 v -6 a 4 4 0 0 1 4 -4 Z" fill="#3A342E" stroke="#3A342E" stroke-width="5" stroke-linejoin="round" stroke-linecap="round"/><path d="M 37 34 h 54 a 5 5 0 0 1 5 5 v 28 a 5 5 0 0 1 -5 5 h -54 a 5 5 0 0 1 -5 -5 v -28 a 5 5 0 0 1 5 -5 Z" fill="#3A342E" stroke="#3A342E" stroke-width="5" stroke-linejoin="round" stroke-linecap="round"/><path d="M 52 88 a 12 12 0 1 0 24 0 a 12 12 0 1 0 -24 0 Z" fill="#3A342E" stroke="#3A342E" stroke-width="5" stroke-linejoin="round" stroke-linecap="round"/><path d="M 52 91 A 14 14 0 0 0 76 91" fill="none" stroke="#3A342E" stroke-width="10" stroke-linejoin="round" stroke-linecap="round"/><path d="M 21 18 h 86 a 3 3 0 0 1 3 3 v 4 a 3 3 0 0 1 -3 3 h -86 a 3 3 0 0 1 -3 -3 v -4 a 3 3 0 0 1 3 -3 Z" fill="#3A342E" stroke="#3A342E" stroke-width="5" stroke-linejoin="round" stroke-linecap="round"/><path d="M 21 18 h 4 a 3 3 0 0 1 3 3 v 86 a 3 3 0 0 1 -3 3 h -4 a 3 3 0 0 1 -3 -3 v -86 a 3 3 0 0 1 3 -3 Z" fill="#3A342E" stroke="#3A342E" stroke-width="5" stroke-linejoin="round" stroke-linecap="round"/><path d="M 103 18 h 4 a 3 3 0 0 1 3 3 v 86 a 3 3 0 0 1 -3 3 h -4 a 3 3 0 0 1 -3 -3 v -86 a 3 3 0 0 1 3 -3 Z" fill="#3A342E" stroke="#3A342E" stroke-width="5" stroke-linejoin="round" stroke-linecap="round"/><path d="M 28 20 h 72 a 8 8 0 0 1 8 8 v 72 a 8 8 0 0 1 -8 8 h -72 a 8 8 0 0 1 -8 -8 v -72 a 8 8 0 0 1 8 -8 Z" fill="#00000010"/><path d="M 20 16 h 6 a 4 4 0 0 1 4 4 v 6 a 4 4 0 0 1 -4 4 h -6 a 4 4 0 0 1 -4 -4 v -6 a 4 4 0 0 1 4 -4 Z" fill="#D85A30"/><path d="M 102 16 h 6 a 4 4 0 0 1 4 4 v 6 a 4 4 0 0 1 -4 4 h -6 a 4 4 0 0 1 -4 -4 v -6 a 4 4 0 0 1 4 -4 Z" fill="#D85A30"/><path d="M 20 98 h 6 a 4 4 0 0 1 4 4 v 6 a 4 4 0 0 1 -4 4 h -6 a 4 4 0 0 1 -4 -4 v -6 a 4 4 0 0 1 4 -4 Z" fill="#D85A30"/><path d="M 102 98 h 6 a 4 4 0 0 1 4 4 v 6 a 4 4 0 0 1 -4 4 h -6 a 4 4 0 0 1 -4 -4 v -6 a 4 4 0 0 1 4 -4 Z" fill="#D85A30"/><path d="M 37 34 h 54 a 5 5 0 0 1 5 5 v 28 a 5 5 0 0 1 -5 5 h -54 a 5 5 0 0 1 -5 -5 v -28 a 5 5 0 0 1 5 -5 Z" fill="#8A9199"/><path d="M 44 39 h 24 a 2 2 0 0 1 2 2 v 3 a 2 2 0 0 1 -2 2 h -24 a 2 2 0 0 1 -2 -2 v -3 a 2 2 0 0 1 2 -2 Z" fill="#2C2C2A"/><path d="M 55.5 46 h 2 a 1.5 1.5 0 0 1 1.5 1.5 v 2 a 1.5 1.5 0 0 1 -1.5 1.5 h -2 a 1.5 1.5 0 0 1 -1.5 -1.5 v -2 a 1.5 1.5 0 0 1 1.5 -1.5 Z" fill="#2C2C2A"/><path d="M 41 54 h 30 a 2 2 0 0 1 2 2 v 6 a 2 2 0 0 1 -2 2 h -30 a 2 2 0 0 1 -2 -2 v -6 a 2 2 0 0 1 2 -2 Z" fill="#F7F4EC"/><path d="M 78 58 a 4 5 0 1 0 8 0 a 4 5 0 1 0 -8 0 Z" fill="#F7F4EC"/><path d="M 52 88 a 12 12 0 1 0 24 0 a 12 12 0 1 0 -24 0 Z" fill="#D85A30"/><path d="M 52 91 A 14 14 0 0 0 76 91" fill="none" stroke="#D85A30" stroke-width="5" stroke-linecap="round" stroke-linejoin="round"/><path d="M 21 18 h 86 a 3 3 0 0 1 3 3 v 4 a 3 3 0 0 1 -3 3 h -86 a 3 3 0 0 1 -3 -3 v -4 a 3 3 0 0 1 3 -3 Z" fill="#5F5E5A"/><path d="M 25.5 23 h 77 a 1.5 1.5 0 0 1 1.5 1.5 v 1 a 1.5 1.5 0 0 1 -1.5 1.5 h -77 a 1.5 1.5 0 0 1 -1.5 -1.5 v -1 a 1.5 1.5 0 0 1 1.5 -1.5 Z" fill="#8A9199"/><path d="M 21 18 h 4 a 3 3 0 0 1 3 3 v 86 a 3 3 0 0 1 -3 3 h -4 a 3 3 0 0 1 -3 -3 v -86 a 3 3 0 0 1 3 -3 Z" fill="#5F5E5A"/><path d="M 24.5 24 h 1 a 1.5 1.5 0 0 1 1.5 1.5 v 77 a 1.5 1.5 0 0 1 -1.5 1.5 h -1 a 1.5 1.5 0 0 1 -1.5 -1.5 v -77 a 1.5 1.5 0 0 1 1.5 -1.5 Z" fill="#8A9199"/><path d="M 103 18 h 4 a 3 3 0 0 1 3 3 v 86 a 3 3 0 0 1 -3 3 h -4 a 3 3 0 0 1 -3 -3 v -86 a 3 3 0 0 1 3 -3 Z" fill="#5F5E5A"/><path d="M 102.5 24 h 1 a 1.5 1.5 0 0 1 1.5 1.5 v 77 a 1.5 1.5 0 0 1 -1.5 1.5 h -1 a 1.5 1.5 0 0 1 -1.5 -1.5 v -77 a 1.5 1.5 0 0 1 1.5 -1.5 Z" fill="#8A9199"/><path d="M 83.5 38 h 5 a 1.5 1.5 0 0 1 1.5 1.5 v 8 a 1.5 1.5 0 0 1 -1.5 1.5 h -5 a 1.5 1.5 0 0 1 -1.5 -1.5 v -8 a 1.5 1.5 0 0 1 1.5 -1.5 Z" fill="#F7F4EC"/><path d="M 84.5 65 a 4.5 4.5 0 1 0 9 0 a 4.5 4.5 0 1 0 -9 0 Z" fill="#D85A30"/></svg>