<svg xmlns="http://www.w3.org/2000/svg" viewBox="0 0 128 128" width="128" height="128"><path d="M 40 52 h 48 a 3 3 0 0 1 3 3 v 12 a 3 3 0 0 1 -3 3 h -48 a 3 3 0 0 1 -3 -3 v -12 a 3 3 0 0 1 3 -3 Z" fill="#3A342E" stroke="#3A342E" stroke-width="5" stroke-linejoin="round" stroke-linecap="round"/><path d="M 40 52 h 48 a 3 3 0 0 1 3 3 v 12 a 3 3 0 0 1 -3 3 h -48 a 3 3 0 0 1 -3 -3 v -12 a 3 3 0 0 1 3 -3 Z" fill="#D3B56E"/><path d="M 45 59 h 38 a 1 1 0 0 1 1 1 v 1 a 1 1 0 0 1 -1 1 h -38 a 1 1 0 0 1 -1 -1 v -1 a 1 1 0 0 1 1 -1 Z" fill="#F7F4EC"/><path d="M 50 64 h 28 a 1 1 0 0 1 1 1 v 0 a 1 1 0 0 1 -1 1 h -28 a 1 1 0 0 1 -1 -1 v 0 a 1 1 0 0 1 1 -1 Z" fill="#5F5E5A"/><path d="M 50 68 h 20 a 1 1 0 0 1 1 1 v 0 a 1 1 0 0 1 -1 1 h -20 a 1 1 0 0 1 -1 -1 v 0 a 1 1 0 0 1 1 -1 Z" fill="#5F5E5A"/></svg>