<svg xmlns="http://www.w3.org/2000/svg" viewBox="0 0 128 128" width="128" height="128"><path d="M 41 55 h 46 a 3 3 0 0 1 3 3 v 12 a 3 3 0 0 1 -3 3 h -46 a 3 3 0 0 1 -3 -3 v -12 a 3 3 0 0 1 3 -3 Z" fill="#3A342E" stroke="#3A342E" stroke-width="5" stroke-linejoin="round" stroke-linecap="round"/><path d="M 41 55 h 46 a 3 3 0 0 1 3 3 v 12 a 3 3 0 0 1 -3 3 h -46 a 3 3 0 0 1 -3 -3 v -12 a 3 3 0 0 1 3 -3 Z" fill="#A9B3B8"/><path d="M 44 59 h 40 a 2 2 0 0 1 2 2 v 6 a 2 2 0 0 1 -2 2 h -40 a 2 2 0 0 1 -2 -2 v -6 a 2 2 0 0 1 2 -2 Z" fill="#CAD4D7"/><path d="M 47 61 L 45 68" fill="none" stroke="#5F5E5A" stroke-width="1.7" stroke-linecap="round" stroke-linejoin="round"/><path d="M 55.5 61 L 53.5 68" fill="none" stroke="#5F5E5A" stroke-width="1.7" stroke-linecap="round" stroke-linejoin="round"/><path d="M 64 61 L 62 68" fill="none" stroke="#5F5E5A" stroke-width="1.7" stroke-linecap="round" stroke-linejoin="round"/><path d="M 72.5 61 L 70.5 68" fill="none" stroke="#5F5E5A" stroke-width="1.7" stroke-linecap="round" stroke-linejoin="round"/><path d="M 81 61 L 79 68" fill="none" stroke="#5F5E5A" stroke-width="1.7" stroke-linecap="round" stroke-linejoin="round"/></svg>