<svg xmlns="http://www.w3.org/2000/svg" viewBox="0 0 128 128" width="128" height="128"><path d="M 25 36 h 78 a 10 10 0 0 1 10 10 v 32 a 10 10 0 0 1 -10 10 h -78 a 10 10 0 0 1 -10 -10 v -32 a 10 10 0 0 1 10 -10 Z" fill="#3A342E" stroke="#3A342E" stroke-width="5" stroke-linejoin="round" stroke-linecap="round"/><path d="M 31 42 h 66 a 8 8 0 0 1 8 8 v 26 a 8 8 0 0 1 -8 8 h -66 a 8 8 0 0 1 -8 -8 v -26 a 8 8 0 0 1 8 -8 Z" fill="#3A342E" stroke="#3A342E" stroke-width="5" stroke-linejoin="round" stroke-linecap="round"/><path d="M 17 46 h 2 a 6 6 0 0 1 6 6 v 22 a 6 6 0 0 1 -6 6 h -2 a 6 6 0 0 1 -6 -6 v -22 a 6 6 0 0 1 6 -6 Z" fill="#3A342E" stroke="#3A342E" stroke-width="5" stroke-linejoin="round" stroke-linecap="round"/><path d="M 109 46 h 2 a 6 6 0 0 1 6 6 v 22 a 6 6 0 0 1 -6 6 h -2 a 6 6 0 0 1 -6 -6 v -22 a 6 6 0 0 1 6 -6 Z" fill="#3A342E" stroke="#3A342E" stroke-width="5" stroke-linejoin="round" stroke-linecap="round"/><path d="M 25 36 h 78 a 10 10 0 0 1 10 10 v 32 a 10 10 0 0 1 -10 10 h -78 a 10 10 0 0 1 -10 -10 v -32 a 10 10 0 0 1 10 -10 Z" fill="#2E4057"/><path d="M 31 42 h 66 a 8 8 0 0 1 8 8 v 26 a 8 8 0 0 1 -8 8 h -66 a 8 8 0 0 1 -8 -8 v -26 a 8 8 0 0 1 8 -8 Z" fill="#3D5A80"/><path d="M 17 46 h 2 a 6 6 0 0 1 6 6 v 22 a 6 6 0 0 1 -6 6 h -2 a 6 6 0 0 1 -6 -6 v -22 a 6 6 0 0 1 6 -6 Z" fill="#2E4057"/><path d="M 109 46 h 2 a 6 6 0 0 1 6 6 v 22 a 6 6 0 0 1 -6 6 h -2 a 6 6 0 0 1 -6 -6 v -22 a 6 6 0 0 1 6 -6 Z" fill="#2E4057"/><path d="M 31 73 h 66 a 3 3 0 0 1 3 3 v 1 a 3 3 0 0 1 -3 3 h -66 a 3 3 0 0 1 -3 -3 v -1 a 3 3 0 0 1 3 -3 Z" fill="#00000016"/><path d="M 50.33333333333333 49 L 50.33333333333333 78" fill="none" stroke="#2E4057" stroke-width="2" stroke-linecap="round" stroke-linejoin="round" opacity="0.65"/><path d="M 77.66666666666666 49 L 77.66666666666666 78" fill="none" stroke="#2E4057" stroke-width="2" stroke-linecap="round" stroke-linejoin="round" opacity="0.65"/></svg>