<svg xmlns="http://www.w3.org/2000/svg" viewBox="0 0 128 128" width="128" height="128"><path d="M -1 49 h 12 a 2 2 0 0 1 2 2 v 26 a 2 2 0 0 1 -2 2 h -12 a 2 2 0 0 1 -2 -2 v -26 a 2 2 0 0 1 2 -2 Z" fill="#3A342E" stroke="#3A342E" stroke-width="5" stroke-linejoin="round" stroke-linecap="round"/><path d="M 117 49 h 12 a 2 2 0 0 1 2 2 v 26 a 2 2 0 0 1 -2 2 h -12 a 2 2 0 0 1 -2 -2 v -26 a 2 2 0 0 1 2 -2 Z" fill="#3A342E" stroke="#3A342E" stroke-width="5" stroke-linejoin="round" stroke-linecap="round"/><path d="M 13 76 h 3 a 2 2 0 0 1 2 2 v 36 a 2 2 0 0 1 -2 2 h -3 a 2 2 0 0 1 -2 -2 v -36 a 2 2 0 0 1 2 -2 Z" fill="#3A342E" stroke="#3A342E" stroke-width="5" stroke-linejoin="round" stroke-linecap="round"/><path d="M -1 49 h 12 a 2 2 0 0 1 2 2 v 26 a 2 2 0 0 1 -2 2 h -12 a 2 2 0 0 1 -2 -2 v -26 a 2 2 0 0 1 2 -2 Z" fill="#B4B2A9"/><path d="M 117 49 h 12 a 2 2 0 0 1 2 2 v 26 a 2 2 0 0 1 -2 2 h -12 a 2 2 0 0 1 -2 -2 v -26 a 2 2 0 0 1 2 -2 Z" fill="#B4B2A9"/><path d="M 13 76 h 3 a 2 2 0 0 1 2 2 v 36 a 2 2 0 0 1 -2 2 h -3 a 2 2 0 0 1 -2 -2 v -36 a 2 2 0 0 1 2 -2 Z" fill="#7A6C5D"/><path d="M 12.3 112 a 2.2 2.2 0 1 0 4.4 0 a 2.2 2.2 0 1 0 -4.4 0 Z" fill="#EF9F27"/><path d="M 18 79 A 40 40 0 0 1 55 81" fill="none" stroke="#00000018" stroke-width="2" stroke-linecap="round" stroke-linejoin="round"/></svg>