<svg xmlns="http://www.w3.org/2000/svg" viewBox="0 0 128 128" width="128" height="128"><path d="M 0 0 h 128 a 0 0 0 0 1 0 0 v 128 a 0 0 0 0 1 0 0 h -128 a 0 0 0 0 1 0 0 v -128 a 0 0 0 0 1 0 0 Z" fill="#A9714B"/><path d="M 0 0 L 128 0" fill="none" stroke="#00000018" stroke-width="1.5" stroke-linecap="round" stroke-linejoin="round"/><path d="M 0 0 L 0 16" fill="none" stroke="#00000018" stroke-width="1.5" stroke-linecap="round" stroke-linejoin="round"/><path d="M 128 0 L 128 16" fill="none" stroke="#00000018" stroke-width="1.5" stroke-linecap="round" stroke-linejoin="round"/><path d="M 0 16 L 128 16" fill="none" stroke="#00000018" stroke-width="1.5" stroke-linecap="round" stroke-linejoin="round"/><path d="M 16 16 L 16 32" fill="none" stroke="#00000018" stroke-width="1.5" stroke-linecap="round" stroke-linejoin="round"/><path d="M 46.07752125244588 21 L 60.07752125244588 21" fill="none" stroke="#00000010" stroke-width="2" stroke-linecap="round" stroke-linejoin="round"/><path d="M 0 32 L 128 32" fill="none" stroke="#00000018" stroke-width="1.5" stroke-linecap="round" stroke-linejoin="round"/><path d="M 64 32 L 64 48" fill="none" stroke="#00000018" stroke-width="1.5" stroke-linecap="round" stroke-linejoin="round"/><path d="M 0 48 L 128 48" fill="none" stroke="#00000018" stroke-width="1.5" stroke-linecap="round" stroke-linejoin="round"/><path d="M 16 48 L 16 64" fill="none" stroke="#00000018" stroke-width="1.5" stroke-linecap="round" stroke-linejoin="round"/><path d="M 20.678687132894993 53 L 34.67868713289499 53" fill="none" stroke="#00000010" stroke-width="2" stroke-linecap="round" stroke-linejoin="round"/><path d="M 0 64 L 128 64" fill="none" stroke="#00000018" stroke-width="1.5" stroke-linecap="round" stroke-linejoin="round"/><path d="M 112 64 L 112 80" fill="none" stroke="#00000018" stroke-width="1.5" stroke-linecap="round" stroke-linejoin="round"/><path d="M 0 80 L 128 80" fill="none" stroke="#00000018" stroke-width="1.5" stroke-linecap="round" stroke-linejoin="round"/><path d="M 16 80 L 16 96" fill="none" stroke="#00000018" stroke-width="1.5" stroke-linecap="round" stroke-linejoin="round"/><path d="M 17.029583724215627 85 L 31.029583724215627 85" fill="none" stroke="#00000010" stroke-width="2" stroke-linecap="round" stroke-linejoin="round"/><path d="M 0 96 L 128 96" fill="none" stroke="#00000018" stroke-width="1.5" stroke-linecap="round" stroke-linejoin="round"/><path d="M 0 96 L 0 112" fill="none" stroke="#00000018" stroke-width="1.5" stroke-linecap="round" stroke-linejoin="round"/><path d="M 128 96 L 128 112" fill="none" stroke="#00000018" stroke-width="1.5" stroke-linecap="round" stroke-linejoin="round"/><path d="M 0 112 L 128 112" fill="none" stroke="#00000018" stroke-width="1.5" stroke-linecap="round" stroke-linejoin="round"/><path d="M 112 112 L 112 128" fill="none" stroke="#00000018" stroke-width="1.5" stroke-linecap="round" stroke-linejoin="round"/></svg>