<svg xmlns="http://www.w3.org/2000/svg" viewBox="0 0 128 128" width="128" height="128"><path d="M 0 0 h 128 a 0 0 0 0 1 0 0 v 128 a 0 0 0 0 1 0 0 h -128 a 0 0 0 0 1 0 0 v -128 a 0 0 0 0 1 0 0 Z" fill="#E8E4D8"/><path d="M 0 0 L 0 128" fill="none" stroke="#00000012" stroke-width="2" stroke-linecap="round" stroke-linejoin="round"/><path d="M 0 0 L 128 0" fill="none" stroke="#00000012" stroke-width="2" stroke-linecap="round" stroke-linejoin="round"/><path d="M 32 0 L 32 128" fill="none" stroke="#00000012" stroke-width="2" stroke-linecap="round" stroke-linejoin="round"/><path d="M 0 32 L 128 32" fill="none" stroke="#00000012" stroke-width="2" stroke-linecap="round" stroke-linejoin="round"/><path d="M 64 0 L 64 128" fill="none" stroke="#00000012" stroke-width="2" stroke-linecap="round" stroke-linejoin="round"/><path d="M 0 64 L 128 64" fill="none" stroke="#00000012" stroke-width="2" stroke-linecap="round" stroke-linejoin="round"/><path d="M 96 0 L 96 128" fill="none" stroke="#00000012" stroke-width="2" stroke-linecap="round" stroke-linejoin="round"/><path d="M 0 96 L 128 96" fill="none" stroke="#00000012" stroke-width="2" stroke-linecap="round" stroke-linejoin="round"/><path d="M 128 0 L 128 128" fill="none" stroke="#00000012" stroke-width="2" stroke-linecap="round" stroke-linejoin="round"/><path d="M 0 128 L 128 128" fill="none" stroke="#00000012" stroke-width="2" stroke-linecap="round" stroke-linejoin="round"/><path d="M 0 0 h 128 a 0 0 0 0 1 0 0 v 14 a 0 0 0 0 1 0 0 h -128 a 0 0 0 0 1 0 0 v -14 a 0 0 0 0 1 0 0 Z" fill="#FFFFFF0A"/></svg>